G04 ================== begin FILE IDENTIFICATION RECORD ==================*
G04 Layout Name:  selff446re2.brd*
G04 Film Name:    L4_BOTTOM*
G04 File Format:  Gerber RS274X*
G04 File Origin:  Cadence Allegro 17.4-S030*
G04 Origin Date:  Wed Aug  3 20:10:38 2022*
G04 *
G04 Layer:  VIA CLASS/BOTTOM*
G04 Layer:  PIN/BOTTOM*
G04 Layer:  ETCH/BOTTOM*
G04 *
G04 Offset:    (0.00 0.00)*
G04 Mirror:    No*
G04 Mode:      Positive*
G04 Rotation:  0*
G04 FullContactRelief:  No*
G04 UndefLineWidth:     4.00*
G04 ================== end FILE IDENTIFICATION RECORD ====================*
%FSLAX25Y25*MOIN*%
%IR0*IPPOS*OFA0.00000B0.00000*MIA0B0*SFA1.00000B1.00000*%
%ADD24C,.055*%
%ADD12C,.02362*%
%ADD11C,.05504*%
%ADD14C,.03642*%
%ADD23R,.055X.055*%
%ADD13C,.05394*%
%ADD10R,.05504X.05504*%
%ADD15R,.03642X.03642*%
%ADD18C,.05937*%
%ADD17R,.05394X.05394*%
%ADD19R,.05937X.05937*%
%ADD22R,.04724X.03543*%
%ADD21R,.03543X.04724*%
%ADD16R,.05709X.04943*%
%ADD20R,.04943X.05709*%
%ADD25C,.01*%
%ADD26C,.03*%
G75*
%LPD*%
G75*
G54D10*
X1048000Y1021000D03*
X1055000Y1090000D03*
X1058500Y1111500D03*
X1093000Y1183500D03*
X1115500Y1182500D03*
G54D20*
X1139259Y1187000D03*
X1132741D03*
X1171159Y1153700D03*
X1164641D03*
X1201741Y1129300D03*
X1208259D03*
G54D11*
X1048000Y1031000D03*
X1045000Y1090000D03*
X1048500Y1111500D03*
X1093000Y1173500D03*
X1115500Y1172500D03*
G54D21*
X1186866Y1080000D03*
X1195134D03*
X1192866Y1116000D03*
X1193134Y1127000D03*
X1184866D03*
X1201134Y1116000D03*
G54D12*
X1045000Y1039000D03*
X1046131Y1058000D03*
X1040000Y1182000D03*
X1060000Y1014000D03*
X1064000Y1012000D03*
X1052000Y1039000D03*
X1062000Y1052000D03*
X1051000Y1058000D03*
X1048000Y1136000D03*
Y1126000D03*
X1052000Y1146000D03*
Y1168000D03*
X1070000Y1014000D03*
X1074000D03*
X1084000Y1052000D03*
X1072000D03*
X1078000D03*
X1066000D03*
X1081000Y1090000D03*
X1070000Y1110000D03*
X1087000Y1011000D03*
X1091769D03*
X1090000Y1032500D03*
X1095000Y1039000D03*
X1087000Y1117000D03*
X1096000Y1116000D03*
X1117976Y1046024D03*
X1120838Y1044240D03*
X1114000Y1106000D03*
X1110000Y1126000D03*
X1138741Y1012741D03*
X1124000Y1046000D03*
X1131000Y1041000D03*
X1139000Y1078000D03*
X1130000Y1102000D03*
X1124193D03*
X1126000Y1116000D03*
X1132000Y1132000D03*
X1123984Y1131984D03*
X1124000Y1140000D03*
Y1148000D03*
Y1162000D03*
X1135000Y1161000D03*
X1126000Y1180000D03*
X1146000Y1028000D03*
X1150000Y1032000D03*
Y1064000D03*
X1148000Y1082000D03*
X1142000D03*
X1156000Y1094000D03*
X1154000Y1114000D03*
X1152000Y1160000D03*
X1148000Y1146000D03*
X1152000D03*
X1158205Y1143795D03*
X1153900Y1172100D03*
X1162000Y1062000D03*
X1174000Y1082000D03*
X1169000Y1076000D03*
X1166000Y1086000D03*
X1178000Y1116000D03*
X1173118Y1113118D03*
X1171764Y1145764D03*
X1173000Y1172000D03*
X1194000Y1027000D03*
X1185500Y1018900D03*
Y1014131D03*
X1196000Y1056000D03*
X1192000Y1070000D03*
X1197000Y1074000D03*
X1185000Y1091000D03*
X1188000Y1136000D03*
X1180000Y1127000D03*
X1187000Y1144396D03*
X1204500Y1018669D03*
Y1013900D03*
X1212000Y1025000D03*
X1207000D03*
X1214000Y1062000D03*
X1199000Y1058000D03*
X1209000D03*
X1200000Y1075000D03*
X1207000Y1117000D03*
X1213000Y1121000D03*
X1213921Y1126079D03*
G54D22*
X1181700Y1138066D03*
Y1146334D03*
G54D13*
X1036500Y1070700D03*
X1046500D03*
X1056500D03*
X1066500D03*
X1076500D03*
X1086500D03*
X1096500D03*
X1106500D03*
G54D23*
X1196000Y1140000D03*
G54D14*
X1076000Y1134165D03*
X1076200Y1159265D03*
G54D15*
X1076000Y1129835D03*
X1076200Y1154935D03*
G54D24*
X1196000Y1160000D03*
Y1150000D03*
Y1180000D03*
Y1170000D03*
G54D25*
G01X1046500Y1070700D02*
Y1080500D01*
X1048000Y1082000D01*
X1062000D01*
X1066000Y1086000D01*
Y1176000D01*
X1068000Y1178000D01*
X1085000D01*
X1086000Y1179000D01*
Y1189000D01*
X1087000Y1190000D01*
X1120000D01*
X1135000Y1175000D01*
Y1167000D01*
X1139000Y1163000D01*
Y1155000D01*
X1148000Y1146000D01*
G01X1076500Y1070700D02*
Y1083500D01*
X1079000Y1086000D01*
X1092000D01*
X1100000Y1094000D01*
Y1105000D01*
X1101000Y1106000D01*
X1114000D01*
G01X1081000Y1090000D02*
X1087000D01*
X1093000Y1096000D01*
Y1118000D01*
X1095000Y1120000D01*
X1100000D01*
X1112846Y1132846D01*
Y1169846D01*
X1115500Y1172500D01*
G01X1152000Y1146000D02*
X1142000Y1136000D01*
X1123000D01*
X1112181Y1125181D01*
Y1125096D01*
X1110904Y1123819D01*
X1110819D01*
X1103000Y1116000D01*
X1096000D01*
G01X1116500Y1070700D02*
Y1104500D01*
X1122000Y1110000D01*
Y1112000D01*
X1126000Y1116000D01*
G01X1139000Y1078000D02*
Y1065000D01*
X1143543Y1060457D01*
X1160457D01*
X1162000Y1062000D01*
G01X1128800Y1074200D02*
X1143000Y1088400D01*
Y1121000D01*
X1132000Y1132000D01*
G01X1128800Y1084200D02*
X1135000Y1090400D01*
Y1123984D01*
X1127000Y1131984D01*
X1123984D01*
G01X1135000Y1161000D02*
X1133457Y1159457D01*
Y1149457D01*
X1124000Y1140000D01*
G01X1125000Y1166741D02*
Y1163000D01*
X1124000Y1162000D01*
G01X1125000Y1173259D02*
Y1179000D01*
X1126000Y1180000D01*
G01X1152500Y1183000D02*
X1148500Y1179000D01*
X1136886D01*
X1132741Y1183145D01*
Y1187000D01*
G01X1162500Y1183000D02*
X1156500Y1189000D01*
X1141000D01*
X1139259Y1187259D01*
Y1187000D01*
G01X1178000Y1023000D02*
X1170000Y1015000D01*
X1152000D01*
X1150000Y1017000D01*
Y1027000D01*
X1149000Y1028000D01*
X1146000D01*
G01X1150000Y1032000D02*
X1151543Y1030457D01*
Y1029457D01*
X1158000Y1023000D01*
G01X1174000Y1082000D02*
X1148000D01*
G01X1142000D02*
X1148000Y1076000D01*
X1169000D01*
G01X1188000Y1111134D02*
Y1113000D01*
X1176000Y1125000D01*
Y1159000D01*
X1175000Y1160000D01*
X1152000D01*
G01X1164641Y1153700D02*
Y1153317D01*
X1158205Y1146881D01*
Y1143795D01*
G01X1178000Y1116000D02*
Y1113818D01*
X1181000Y1110818D01*
Y1077000D01*
X1189000Y1069000D01*
Y1036000D01*
X1186000Y1033000D01*
X1178000D01*
G01X1173118Y1113118D02*
X1176000Y1110236D01*
Y1094000D01*
X1177000Y1093000D01*
Y1075000D01*
X1186000Y1066000D01*
Y1048000D01*
X1185000Y1047000D01*
X1182000D01*
X1178000Y1043000D01*
G01X1171159Y1153700D02*
Y1148551D01*
X1171764Y1147946D01*
Y1145764D01*
G01X1192000Y1070000D02*
Y1065000D01*
X1199000Y1058000D01*
G01X1185000Y1091000D02*
Y1087000D01*
X1186866Y1085134D01*
Y1080000D01*
G01X1200000Y1075000D02*
Y1078000D01*
X1198000Y1080000D01*
X1195134D01*
G01X1209000Y1058000D02*
X1197000Y1070000D01*
Y1074000D01*
G01X1188000Y1111134D02*
Y1088000D01*
X1191000Y1085000D01*
X1208000D01*
G01X1192866Y1116000D02*
Y1112134D01*
X1191866Y1111134D01*
X1188000D01*
G01X1184000Y1164741D02*
Y1152000D01*
X1196000Y1140000D01*
G01X1213000Y1121000D02*
X1211000Y1123000D01*
X1196544D01*
X1193134Y1126410D01*
Y1127000D01*
G01X1188000Y1136000D02*
X1185934Y1138066D01*
X1181700D01*
G01X1184866Y1127000D02*
X1180000D01*
G01X1181700Y1146334D02*
X1185062D01*
X1187000Y1144396D01*
G01X1184000Y1171259D02*
X1184383D01*
X1187563Y1174439D01*
X1190439D01*
X1196000Y1180000D01*
G01X1213921Y1126079D02*
X1216000Y1124000D01*
Y1064000D01*
X1214000Y1062000D01*
G01X1201134Y1116000D02*
X1206000D01*
X1207000Y1117000D01*
G01X1201741Y1129300D02*
Y1134741D01*
X1204000Y1137000D01*
Y1159000D01*
X1206000Y1161000D01*
X1210000D01*
G01Y1171000D02*
X1217000Y1164000D01*
Y1132000D01*
X1214300Y1129300D01*
X1208259D01*
G54D16*
X1088000Y1038741D03*
Y1045259D03*
X1125000Y1166741D03*
Y1173259D03*
X1184000Y1164741D03*
Y1171259D03*
G54D26*
G01X1078000Y1052000D02*
Y1049518D01*
X1082259Y1045259D01*
X1088000D01*
G01D02*
Y1048000D01*
X1084000Y1052000D01*
G01X1088000Y1038741D02*
Y1034500D01*
X1090000Y1032500D01*
G01X1088000Y1038741D02*
X1094741D01*
X1095000Y1039000D01*
G54D17*
X1116500Y1070700D03*
G54D18*
X1128800Y1054200D03*
Y1064200D03*
Y1074200D03*
X1158000Y1023000D03*
Y1033000D03*
Y1043000D03*
X1162500Y1183000D03*
X1178000Y1023000D03*
Y1033000D03*
Y1043000D03*
X1172500Y1183000D03*
X1182500D03*
X1208000Y1075000D03*
Y1085000D03*
Y1095000D03*
X1210000Y1141000D03*
Y1151000D03*
Y1161000D03*
G54D19*
X1128800Y1084200D03*
X1158000Y1053000D03*
X1152500Y1183000D03*
X1178000Y1053000D03*
X1208000Y1105000D03*
X1210000Y1171000D03*
M02*
