G04 ================== begin FILE IDENTIFICATION RECORD ==================*
G04 Layout Name:  selff446re2.brd*
G04 Film Name:    SILKSCREEN_BOTTOM*
G04 File Format:  Gerber RS274X*
G04 File Origin:  Cadence Allegro 17.4-S030*
G04 Origin Date:  Wed Aug  3 20:10:38 2022*
G04 *
G04 Layer:  REF DES/SILKSCREEN_BOTTOM*
G04 Layer:  PACKAGE GEOMETRY/SILKSCREEN_BOTTOM*
G04 Layer:  BOARD GEOMETRY/SILKSCREEN_BOTTOM*
G04 *
G04 Offset:    (0.00 0.00)*
G04 Mirror:    No*
G04 Mode:      Positive*
G04 Rotation:  0*
G04 FullContactRelief:  No*
G04 UndefLineWidth:     4.00*
G04 ================== end FILE IDENTIFICATION RECORD ====================*
%FSLAX25Y25*MOIN*%
%IR0*IPPOS*OFA0.00000B0.00000*MIA0B0*SFA1.00000B1.00000*%
%ADD10C,.02*%
%ADD11C,.004*%
G75*
%LPD*%
G75*
G54D10*
G01X1097649Y1032000D02*
G02I-1500J0D01*
G54D11*
G01X1092708Y1046613D02*
X1092583Y1046773D01*
X1092500Y1046960D01*
Y1047173D01*
X1092625Y1047413D01*
X1092833Y1047600D01*
X1093083Y1047733D01*
X1093500Y1047840D01*
X1093875Y1047867D01*
X1094250Y1047813D01*
X1094500Y1047733D01*
X1094750Y1047573D01*
X1094917Y1047387D01*
X1095000Y1047200D01*
Y1047013D01*
X1094917Y1046827D01*
X1094792Y1046667D01*
X1094625Y1046533D01*
G01X1095000Y1045000D02*
X1092500D01*
X1093000Y1045320D01*
G01X1095000D02*
Y1044680D01*
G01Y1042800D02*
X1094958Y1042613D01*
X1094833Y1042400D01*
X1094625Y1042267D01*
X1094333Y1042213D01*
X1094042Y1042267D01*
X1093792Y1042427D01*
X1093667Y1042667D01*
Y1042933D01*
X1093583Y1043093D01*
X1093375Y1043227D01*
X1093083Y1043280D01*
X1092792Y1043200D01*
X1092583Y1043013D01*
X1092500Y1042800D01*
X1092583Y1042587D01*
X1092792Y1042400D01*
X1093083Y1042320D01*
X1093375Y1042373D01*
X1093583Y1042507D01*
X1093667Y1042667D01*
Y1042933D01*
X1093792Y1043173D01*
X1094042Y1043333D01*
X1094333Y1043387D01*
X1094625Y1043333D01*
X1094833Y1043200D01*
X1094958Y1042987D01*
X1095000Y1042800D01*
G01X1129708Y1176513D02*
X1129583Y1176673D01*
X1129500Y1176860D01*
Y1177073D01*
X1129625Y1177313D01*
X1129833Y1177500D01*
X1130083Y1177633D01*
X1130500Y1177740D01*
X1130875Y1177767D01*
X1131250Y1177713D01*
X1131500Y1177633D01*
X1131750Y1177473D01*
X1131917Y1177287D01*
X1132000Y1177100D01*
Y1176913D01*
X1131917Y1176727D01*
X1131792Y1176567D01*
X1131625Y1176433D01*
G01X1129917Y1175407D02*
X1129667Y1175247D01*
X1129542Y1175060D01*
X1129500Y1174847D01*
X1129583Y1174580D01*
X1129792Y1174393D01*
X1130042Y1174340D01*
X1130292Y1174367D01*
X1130500Y1174473D01*
X1130917Y1175007D01*
X1131208Y1175247D01*
X1131625Y1175407D01*
X1132000Y1175460D01*
Y1174340D01*
G01X1146313Y1185192D02*
X1146473Y1185317D01*
X1146660Y1185400D01*
X1146873D01*
X1147113Y1185275D01*
X1147300Y1185067D01*
X1147433Y1184817D01*
X1147540Y1184400D01*
X1147567Y1184025D01*
X1147513Y1183650D01*
X1147433Y1183400D01*
X1147273Y1183150D01*
X1147087Y1182983D01*
X1146900Y1182900D01*
X1146713D01*
X1146527Y1182983D01*
X1146367Y1183108D01*
X1146233Y1183275D01*
G01X1145287D02*
X1145127Y1183067D01*
X1144940Y1182942D01*
X1144700Y1182900D01*
X1144460Y1182983D01*
X1144273Y1183150D01*
X1144140Y1183442D01*
X1144113Y1183775D01*
X1144167Y1184108D01*
X1144300Y1184317D01*
X1144487Y1184483D01*
X1144673Y1184525D01*
X1144860Y1184483D01*
X1145100Y1184317D01*
X1145020Y1185400D01*
X1144300D01*
G01X1177763Y1134720D02*
Y1149680D01*
X1185637D01*
Y1134720D01*
X1177763D01*
G01X1178513Y1152292D02*
X1178673Y1152417D01*
X1178860Y1152500D01*
X1179073D01*
X1179313Y1152375D01*
X1179500Y1152167D01*
X1179633Y1151917D01*
X1179740Y1151500D01*
X1179767Y1151125D01*
X1179713Y1150750D01*
X1179633Y1150500D01*
X1179473Y1150250D01*
X1179287Y1150083D01*
X1179100Y1150000D01*
X1178913D01*
X1178727Y1150083D01*
X1178567Y1150208D01*
X1178433Y1150375D01*
G01X1177407Y1151042D02*
X1177220Y1151333D01*
X1177060Y1151500D01*
X1176847Y1151583D01*
X1176660Y1151500D01*
X1176527Y1151333D01*
X1176420Y1151083D01*
X1176393Y1150792D01*
X1176420Y1150542D01*
X1176527Y1150292D01*
X1176687Y1150083D01*
X1176873Y1150000D01*
X1177087Y1150083D01*
X1177273Y1150333D01*
X1177380Y1150708D01*
X1177407Y1151125D01*
X1177353Y1151667D01*
X1177273Y1151958D01*
X1177140Y1152250D01*
X1176953Y1152458D01*
X1176767Y1152500D01*
X1176580Y1152417D01*
X1176447Y1152208D01*
G01X1177613Y1164292D02*
X1177773Y1164417D01*
X1177960Y1164500D01*
X1178173D01*
X1178413Y1164375D01*
X1178600Y1164167D01*
X1178733Y1163917D01*
X1178840Y1163500D01*
X1178867Y1163125D01*
X1178813Y1162750D01*
X1178733Y1162500D01*
X1178573Y1162250D01*
X1178387Y1162083D01*
X1178200Y1162000D01*
X1178013D01*
X1177827Y1162083D01*
X1177667Y1162208D01*
X1177533Y1162375D01*
G01X1176000Y1162000D02*
Y1164500D01*
X1176320Y1164000D01*
G01Y1162000D02*
X1175680D01*
G01X1173480D02*
Y1164500D01*
X1174467Y1162708D01*
X1173133D01*
G01X1198480Y1076063D02*
X1183520D01*
Y1083937D01*
X1198480D01*
Y1076063D01*
G01X1188433Y1084800D02*
Y1087300D01*
X1187767D01*
X1187553Y1087175D01*
X1187420Y1087008D01*
X1187367Y1086675D01*
X1187420Y1086342D01*
X1187580Y1086133D01*
X1187767Y1086008D01*
X1188433D01*
G01X1187767D02*
X1187367Y1084800D01*
G01X1185700D02*
Y1087300D01*
X1186020Y1086800D01*
G01Y1084800D02*
X1185380D01*
G01X1184087Y1085175D02*
X1183927Y1084967D01*
X1183740Y1084842D01*
X1183500Y1084800D01*
X1183260Y1084883D01*
X1183073Y1085050D01*
X1182940Y1085342D01*
X1182913Y1085675D01*
X1182967Y1086008D01*
X1183100Y1086217D01*
X1183287Y1086383D01*
X1183473Y1086425D01*
X1183660Y1086383D01*
X1183900Y1086217D01*
X1183820Y1087300D01*
X1183100D01*
G01X1189520Y1119937D02*
X1204480D01*
Y1112063D01*
X1189520D01*
Y1119937D01*
G01X1187733Y1120000D02*
Y1122500D01*
X1187067D01*
X1186853Y1122375D01*
X1186720Y1122208D01*
X1186667Y1121875D01*
X1186720Y1121542D01*
X1186880Y1121333D01*
X1187067Y1121208D01*
X1187733D01*
G01X1187067D02*
X1186667Y1120000D01*
G01X1185000D02*
Y1122500D01*
X1185320Y1122000D01*
G01Y1120000D02*
X1184680D01*
G01X1182480D02*
Y1122500D01*
X1183467Y1120708D01*
X1182133D01*
G01X1184733Y1132000D02*
Y1134500D01*
X1184067D01*
X1183853Y1134375D01*
X1183720Y1134208D01*
X1183667Y1133875D01*
X1183720Y1133542D01*
X1183880Y1133333D01*
X1184067Y1133208D01*
X1184733D01*
G01X1184067D02*
X1183667Y1132000D01*
G01X1182000D02*
Y1134500D01*
X1182320Y1134000D01*
G01Y1132000D02*
X1181680D01*
G01X1180387Y1132500D02*
X1180227Y1132208D01*
X1180013Y1132042D01*
X1179773Y1132000D01*
X1179560Y1132042D01*
X1179347Y1132250D01*
X1179213Y1132500D01*
X1179187Y1132750D01*
X1179240Y1133042D01*
X1179427Y1133250D01*
X1179613Y1133333D01*
X1179853D01*
G01X1179613D02*
X1179453Y1133458D01*
X1179320Y1133667D01*
X1179267Y1133917D01*
X1179320Y1134167D01*
X1179453Y1134375D01*
X1179693Y1134500D01*
X1179933Y1134458D01*
X1180173Y1134292D01*
G01X1181520Y1130937D02*
X1196480D01*
Y1123063D01*
X1181520D01*
Y1130937D01*
G01X1210733Y1119000D02*
Y1121500D01*
X1210067D01*
X1209853Y1121375D01*
X1209720Y1121208D01*
X1209667Y1120875D01*
X1209720Y1120542D01*
X1209880Y1120333D01*
X1210067Y1120208D01*
X1210733D01*
G01X1210067D02*
X1209667Y1119000D01*
G01X1208000D02*
Y1121500D01*
X1208320Y1121000D01*
G01Y1119000D02*
X1207680D01*
G01X1206307Y1120042D02*
X1206120Y1120333D01*
X1205960Y1120500D01*
X1205747Y1120583D01*
X1205560Y1120500D01*
X1205427Y1120333D01*
X1205320Y1120083D01*
X1205293Y1119792D01*
X1205320Y1119542D01*
X1205427Y1119292D01*
X1205587Y1119083D01*
X1205773Y1119000D01*
X1205987Y1119083D01*
X1206173Y1119333D01*
X1206280Y1119708D01*
X1206307Y1120125D01*
X1206253Y1120667D01*
X1206173Y1120958D01*
X1206040Y1121250D01*
X1205853Y1121458D01*
X1205667Y1121500D01*
X1205480Y1121417D01*
X1205347Y1121208D01*
G01X1216013Y1132692D02*
X1216173Y1132817D01*
X1216360Y1132900D01*
X1216573D01*
X1216813Y1132775D01*
X1217000Y1132567D01*
X1217133Y1132317D01*
X1217240Y1131900D01*
X1217267Y1131525D01*
X1217213Y1131150D01*
X1217133Y1130900D01*
X1216973Y1130650D01*
X1216787Y1130483D01*
X1216600Y1130400D01*
X1216413D01*
X1216227Y1130483D01*
X1216067Y1130608D01*
X1215933Y1130775D01*
G01X1214987Y1130900D02*
X1214827Y1130608D01*
X1214613Y1130442D01*
X1214373Y1130400D01*
X1214160Y1130442D01*
X1213947Y1130650D01*
X1213813Y1130900D01*
X1213787Y1131150D01*
X1213840Y1131442D01*
X1214027Y1131650D01*
X1214213Y1131733D01*
X1214453D01*
G01X1214213D02*
X1214053Y1131858D01*
X1213920Y1132067D01*
X1213867Y1132317D01*
X1213920Y1132567D01*
X1214053Y1132775D01*
X1214293Y1132900D01*
X1214533Y1132858D01*
X1214773Y1132692D01*
M02*
