G04 ================== begin FILE IDENTIFICATION RECORD ==================*
G04 Layout Name:  selff446re2.brd*
G04 Film Name:    SILKSCREEN_TOP*
G04 File Format:  Gerber RS274X*
G04 File Origin:  Cadence Allegro 17.4-S030*
G04 Origin Date:  Wed Aug  3 20:10:38 2022*
G04 *
G04 Layer:  REF DES/SILKSCREEN_TOP*
G04 Layer:  PACKAGE GEOMETRY/SILKSCREEN_TOP*
G04 Layer:  BOARD GEOMETRY/SILKSCREEN_TOP*
G04 *
G04 Offset:    (0.00 0.00)*
G04 Mirror:    No*
G04 Mode:      Positive*
G04 Rotation:  0*
G04 FullContactRelief:  No*
G04 UndefLineWidth:     4.00*
G04 ================== end FILE IDENTIFICATION RECORD ====================*
%FSLAX25Y25*MOIN*%
%IR0*IPPOS*OFA0.00000B0.00000*MIA0B0*SFA1.00000B1.00000*%
%ADD10C,.01*%
%ADD11C,.01575*%
%ADD12C,.005*%
%ADD13C,.004*%
%ADD14C,.006*%
%ADD15C,.00787*%
G75*
%LPD*%
G75*
G36*
G01X1113012Y1128797D02*
Y1127297D01*
X1114012D01*
Y1128797D01*
X1113012D01*
G37*
G36*
G01X1130392Y1105012D02*
Y1104012D01*
X1131892D01*
Y1105012D01*
X1130392D01*
G37*
G36*
G01X1132360Y1156988D02*
Y1157988D01*
X1133860D01*
Y1156988D01*
X1132360D01*
G37*
G36*
G01X1150077Y1105012D02*
Y1104012D01*
X1151577D01*
Y1105012D01*
X1150077D01*
G37*
G36*
G01X1152045Y1156988D02*
Y1157988D01*
X1153545D01*
Y1156988D01*
X1152045D01*
G37*
G36*
G01X1166988Y1130766D02*
Y1129266D01*
X1165988D01*
Y1130766D01*
X1166988D01*
G37*
G54D10*
G01X1076557Y1122551D02*
G03I-557J0D01*
G01X1076757Y1147651D02*
G03I-557J0D01*
G54D11*
G01X1129430Y1092153D02*
G03I-787J0D01*
G01X1158631Y1060953D02*
G03I-788J0D01*
G01X1145335Y1182843D02*
G03I-788J0D01*
G01X1178630Y1060953D02*
G03I-787J0D01*
G01X1208630Y1112953D02*
G03I-787J0D01*
G01X1210630Y1178953D02*
G03I-787J0D01*
G54D12*
G01X1052606Y1016787D02*
X1043394D01*
Y1035213D01*
X1052606D01*
Y1016787D01*
G01X1059213Y1094606D02*
Y1085394D01*
X1040787D01*
Y1094606D01*
X1059213D01*
G01X1062713Y1116106D02*
Y1106894D01*
X1044287D01*
Y1116106D01*
X1062713D01*
G01X1082299Y1132000D02*
G03I-6299J0D01*
G01X1082499Y1157100D02*
G03I-6299J0D01*
G01X1088394Y1187713D02*
X1097606D01*
Y1169287D01*
X1088394D01*
Y1187713D01*
G01X1110894Y1186713D02*
X1120106D01*
Y1168287D01*
X1110894D01*
Y1186713D01*
G01X1133721Y1089200D02*
X1123879D01*
Y1049200D01*
X1133721D01*
Y1089200D01*
G01X1162921Y1058000D02*
X1153079D01*
Y1018000D01*
X1162921D01*
Y1058000D01*
G01X1147500Y1187921D02*
Y1178079D01*
X1187500D01*
Y1187921D01*
X1147500D01*
G01X1182921Y1058000D02*
X1173079D01*
Y1018000D01*
X1182921D01*
Y1058000D01*
G01X1200606Y1135799D02*
X1191394D01*
Y1184201D01*
X1200606D01*
Y1135799D01*
G01X1212921Y1110000D02*
X1203079D01*
Y1070000D01*
X1212921D01*
Y1110000D01*
G01X1214921Y1176000D02*
X1205079D01*
Y1136000D01*
X1214921D01*
Y1176000D01*
G54D13*
G01X1039333Y1008000D02*
X1038267D01*
Y1010500D01*
X1039333D01*
G01X1038907Y1009292D02*
X1038267D01*
G01X1040440Y1008000D02*
X1041560Y1010500D01*
G01X1040440D02*
X1041560Y1008000D01*
G01X1043200Y1010500D02*
Y1008000D01*
G01X1042587Y1010500D02*
X1043813D01*
G01X1045933Y1008000D02*
X1044867D01*
Y1010500D01*
X1045933D01*
G01X1045507Y1009292D02*
X1044867D01*
G01X1047067Y1008000D02*
Y1010500D01*
X1047733D01*
X1047947Y1010375D01*
X1048080Y1010208D01*
X1048133Y1009875D01*
X1048080Y1009542D01*
X1047920Y1009333D01*
X1047733Y1009208D01*
X1047067D01*
G01X1047733D02*
X1048133Y1008000D01*
G01X1049187D02*
Y1010500D01*
X1050413Y1008000D01*
Y1010500D01*
G01X1052213Y1009333D02*
X1052320Y1009458D01*
X1052400Y1009667D01*
X1052453Y1009958D01*
X1052400Y1010208D01*
X1052293Y1010375D01*
X1052107Y1010500D01*
X1051387D01*
Y1008000D01*
X1052267D01*
X1052453Y1008167D01*
X1052560Y1008417D01*
X1052613Y1008708D01*
X1052560Y1009000D01*
X1052400Y1009250D01*
X1052213Y1009333D01*
X1051387D01*
G01X1053533Y1008000D02*
X1054200Y1010500D01*
X1054867Y1008000D01*
G01X1054627Y1008875D02*
X1053773D01*
G01X1056400Y1010500D02*
Y1008000D01*
G01X1055787Y1010500D02*
X1057013D01*
G01X1032240Y1043333D02*
X1032453Y1043125D01*
X1032693Y1043000D01*
X1032907D01*
X1033120Y1043125D01*
X1033280Y1043333D01*
X1033360Y1043625D01*
X1033307Y1043917D01*
X1033173Y1044167D01*
X1032933Y1044333D01*
X1032613Y1044417D01*
X1032427Y1044583D01*
X1032347Y1044875D01*
X1032400Y1045167D01*
X1032533Y1045375D01*
X1032720Y1045500D01*
X1032907D01*
X1033093Y1045417D01*
X1033253Y1045208D01*
G01X1034467Y1043000D02*
Y1045500D01*
X1035107D01*
X1035320Y1045375D01*
X1035480Y1045083D01*
X1035533Y1044750D01*
X1035480Y1044417D01*
X1035347Y1044167D01*
X1035107Y1044042D01*
X1034467D01*
G01X1036533Y1043000D02*
X1037200Y1045500D01*
X1037867Y1043000D01*
G01X1037627Y1043875D02*
X1036773D01*
G01X1038867Y1043000D02*
Y1045500D01*
X1039533D01*
X1039747Y1045375D01*
X1039880Y1045208D01*
X1039933Y1044875D01*
X1039880Y1044542D01*
X1039720Y1044333D01*
X1039533Y1044208D01*
X1038867D01*
G01X1039533D02*
X1039933Y1043000D01*
G01X1042133D02*
X1041067D01*
Y1045500D01*
X1042133D01*
G01X1041707Y1044292D02*
X1041067D01*
G01X1043293Y1045083D02*
X1043453Y1045333D01*
X1043640Y1045458D01*
X1043853Y1045500D01*
X1044120Y1045417D01*
X1044307Y1045208D01*
X1044360Y1044958D01*
X1044333Y1044708D01*
X1044227Y1044500D01*
X1043693Y1044083D01*
X1043453Y1043792D01*
X1043293Y1043375D01*
X1043240Y1043000D01*
X1044360D01*
G01X1039387Y1050292D02*
X1039227Y1050417D01*
X1039040Y1050500D01*
X1038827D01*
X1038587Y1050375D01*
X1038400Y1050167D01*
X1038267Y1049917D01*
X1038160Y1049500D01*
X1038133Y1049125D01*
X1038187Y1048750D01*
X1038267Y1048500D01*
X1038427Y1048250D01*
X1038613Y1048083D01*
X1038800Y1048000D01*
X1038987D01*
X1039173Y1048083D01*
X1039333Y1048208D01*
X1039467Y1048375D01*
G01X1040493Y1050083D02*
X1040653Y1050333D01*
X1040840Y1050458D01*
X1041053Y1050500D01*
X1041320Y1050417D01*
X1041507Y1050208D01*
X1041560Y1049958D01*
X1041533Y1049708D01*
X1041427Y1049500D01*
X1040893Y1049083D01*
X1040653Y1048792D01*
X1040493Y1048375D01*
X1040440Y1048000D01*
X1041560D01*
G01X1042613Y1048500D02*
X1042773Y1048208D01*
X1042987Y1048042D01*
X1043227Y1048000D01*
X1043440Y1048042D01*
X1043653Y1048250D01*
X1043787Y1048500D01*
X1043813Y1048750D01*
X1043760Y1049042D01*
X1043573Y1049250D01*
X1043387Y1049333D01*
X1043147D01*
G01X1043387D02*
X1043547Y1049458D01*
X1043680Y1049667D01*
X1043733Y1049917D01*
X1043680Y1050167D01*
X1043547Y1050375D01*
X1043307Y1050500D01*
X1043067Y1050458D01*
X1042827Y1050292D01*
G01X1040387Y1102292D02*
X1040227Y1102417D01*
X1040040Y1102500D01*
X1039827D01*
X1039587Y1102375D01*
X1039400Y1102167D01*
X1039267Y1101917D01*
X1039160Y1101500D01*
X1039133Y1101125D01*
X1039187Y1100750D01*
X1039267Y1100500D01*
X1039427Y1100250D01*
X1039613Y1100083D01*
X1039800Y1100000D01*
X1039987D01*
X1040173Y1100083D01*
X1040333Y1100208D01*
X1040467Y1100375D01*
G01X1042000Y1100000D02*
Y1102500D01*
X1041680Y1102000D01*
G01Y1100000D02*
X1042320D01*
G01X1043693Y1102083D02*
X1043853Y1102333D01*
X1044040Y1102458D01*
X1044253Y1102500D01*
X1044520Y1102417D01*
X1044707Y1102208D01*
X1044760Y1101958D01*
X1044733Y1101708D01*
X1044627Y1101500D01*
X1044093Y1101083D01*
X1043853Y1100792D01*
X1043693Y1100375D01*
X1043640Y1100000D01*
X1044760D01*
G01X1037013Y1093333D02*
X1037120Y1093458D01*
X1037200Y1093667D01*
X1037253Y1093958D01*
X1037200Y1094208D01*
X1037093Y1094375D01*
X1036907Y1094500D01*
X1036187D01*
Y1092000D01*
X1037067D01*
X1037253Y1092167D01*
X1037360Y1092417D01*
X1037413Y1092708D01*
X1037360Y1093000D01*
X1037200Y1093250D01*
X1037013Y1093333D01*
X1036187D01*
G01X1039320Y1092000D02*
Y1094500D01*
X1038333Y1092708D01*
X1039667D01*
G01X1039487Y1138292D02*
X1039327Y1138417D01*
X1039140Y1138500D01*
X1038927D01*
X1038687Y1138375D01*
X1038500Y1138167D01*
X1038367Y1137917D01*
X1038260Y1137500D01*
X1038233Y1137125D01*
X1038287Y1136750D01*
X1038367Y1136500D01*
X1038527Y1136250D01*
X1038713Y1136083D01*
X1038900Y1136000D01*
X1039087D01*
X1039273Y1136083D01*
X1039433Y1136208D01*
X1039567Y1136375D01*
G01X1040647Y1136292D02*
X1040833Y1136083D01*
X1041047Y1136000D01*
X1041260Y1136083D01*
X1041447Y1136333D01*
X1041580Y1136708D01*
X1041633Y1137083D01*
Y1137542D01*
X1041580Y1137917D01*
X1041447Y1138250D01*
X1041287Y1138417D01*
X1041100Y1138500D01*
X1040887Y1138417D01*
X1040727Y1138250D01*
X1040620Y1138000D01*
X1040567Y1137667D01*
X1040620Y1137375D01*
X1040753Y1137083D01*
X1040913Y1136917D01*
X1041100Y1136875D01*
X1041313Y1136958D01*
X1041473Y1137167D01*
X1041633Y1137542D01*
G01X1038387Y1128292D02*
X1038227Y1128417D01*
X1038040Y1128500D01*
X1037827D01*
X1037587Y1128375D01*
X1037400Y1128167D01*
X1037267Y1127917D01*
X1037160Y1127500D01*
X1037133Y1127125D01*
X1037187Y1126750D01*
X1037267Y1126500D01*
X1037427Y1126250D01*
X1037613Y1126083D01*
X1037800Y1126000D01*
X1037987D01*
X1038173Y1126083D01*
X1038333Y1126208D01*
X1038467Y1126375D01*
G01X1040000Y1126000D02*
Y1128500D01*
X1039680Y1128000D01*
G01Y1126000D02*
X1040320D01*
G01X1042200D02*
Y1128500D01*
X1041880Y1128000D01*
G01Y1126000D02*
X1042520D01*
G01X1044387Y1154292D02*
X1044227Y1154417D01*
X1044040Y1154500D01*
X1043827D01*
X1043587Y1154375D01*
X1043400Y1154167D01*
X1043267Y1153917D01*
X1043160Y1153500D01*
X1043133Y1153125D01*
X1043187Y1152750D01*
X1043267Y1152500D01*
X1043427Y1152250D01*
X1043613Y1152083D01*
X1043800Y1152000D01*
X1043987D01*
X1044173Y1152083D01*
X1044333Y1152208D01*
X1044467Y1152375D01*
G01X1046000Y1152000D02*
Y1154500D01*
X1045680Y1154000D01*
G01Y1152000D02*
X1046320D01*
G01X1048200Y1154500D02*
X1047987Y1154417D01*
X1047827Y1154208D01*
X1047720Y1153958D01*
X1047640Y1153625D01*
X1047613Y1153250D01*
X1047640Y1152875D01*
X1047720Y1152542D01*
X1047827Y1152292D01*
X1047987Y1152083D01*
X1048200Y1152000D01*
X1048413Y1152083D01*
X1048573Y1152292D01*
X1048680Y1152542D01*
X1048760Y1152875D01*
X1048787Y1153250D01*
X1048760Y1153625D01*
X1048680Y1153958D01*
X1048573Y1154208D01*
X1048413Y1154417D01*
X1048200Y1154500D01*
G01X1043487Y1166292D02*
X1043327Y1166417D01*
X1043140Y1166500D01*
X1042927D01*
X1042687Y1166375D01*
X1042500Y1166167D01*
X1042367Y1165917D01*
X1042260Y1165500D01*
X1042233Y1165125D01*
X1042287Y1164750D01*
X1042367Y1164500D01*
X1042527Y1164250D01*
X1042713Y1164083D01*
X1042900Y1164000D01*
X1043087D01*
X1043273Y1164083D01*
X1043433Y1164208D01*
X1043567Y1164375D01*
G01X1045047Y1164000D02*
X1045100Y1164542D01*
X1045180Y1165000D01*
X1045287Y1165417D01*
X1045420Y1165875D01*
X1045633Y1166500D01*
X1044567D01*
G01X1041767Y1193500D02*
Y1196000D01*
X1042433D01*
X1042647Y1195875D01*
X1042780Y1195708D01*
X1042833Y1195375D01*
X1042780Y1195042D01*
X1042620Y1194833D01*
X1042433Y1194708D01*
X1041767D01*
G01X1042433D02*
X1042833Y1193500D01*
G01X1044500D02*
Y1196000D01*
X1044180Y1195500D01*
G01Y1193500D02*
X1044820D01*
G01X1055480Y1191937D02*
X1040520D01*
Y1184063D01*
X1055480D01*
Y1191937D01*
G01X1061313Y1008500D02*
Y1006708D01*
X1061420Y1006333D01*
X1061633Y1006083D01*
X1061900Y1006000D01*
X1062167Y1006083D01*
X1062380Y1006333D01*
X1062487Y1006708D01*
Y1008500D01*
G01X1063593Y1008083D02*
X1063753Y1008333D01*
X1063940Y1008458D01*
X1064153Y1008500D01*
X1064420Y1008417D01*
X1064607Y1008208D01*
X1064660Y1007958D01*
X1064633Y1007708D01*
X1064527Y1007500D01*
X1063993Y1007083D01*
X1063753Y1006792D01*
X1063593Y1006375D01*
X1063540Y1006000D01*
X1064660D01*
G01X1047013Y1013333D02*
X1047120Y1013458D01*
X1047200Y1013667D01*
X1047253Y1013958D01*
X1047200Y1014208D01*
X1047093Y1014375D01*
X1046907Y1014500D01*
X1046187D01*
Y1012000D01*
X1047067D01*
X1047253Y1012167D01*
X1047360Y1012417D01*
X1047413Y1012708D01*
X1047360Y1013000D01*
X1047200Y1013250D01*
X1047013Y1013333D01*
X1046187D01*
G01X1048413Y1012375D02*
X1048573Y1012167D01*
X1048760Y1012042D01*
X1049000Y1012000D01*
X1049240Y1012083D01*
X1049427Y1012250D01*
X1049560Y1012542D01*
X1049587Y1012875D01*
X1049533Y1013208D01*
X1049400Y1013417D01*
X1049213Y1013583D01*
X1049027Y1013625D01*
X1048840Y1013583D01*
X1048600Y1013417D01*
X1048680Y1014500D01*
X1049400D01*
G01X1054800Y1063500D02*
Y1061000D01*
G01X1054187Y1063500D02*
X1055413D01*
G01X1056440Y1061000D02*
X1057560Y1063500D01*
G01X1056440D02*
X1057560Y1061000D01*
G01X1058613Y1061500D02*
X1058773Y1061208D01*
X1058987Y1061042D01*
X1059227Y1061000D01*
X1059440Y1061042D01*
X1059653Y1061250D01*
X1059787Y1061500D01*
X1059813Y1061750D01*
X1059760Y1062042D01*
X1059573Y1062250D01*
X1059387Y1062333D01*
X1059147D01*
G01X1059387D02*
X1059547Y1062458D01*
X1059680Y1062667D01*
X1059733Y1062917D01*
X1059680Y1063167D01*
X1059547Y1063375D01*
X1059307Y1063500D01*
X1059067Y1063458D01*
X1058827Y1063292D01*
G01X1061013Y1089333D02*
X1061120Y1089458D01*
X1061200Y1089667D01*
X1061253Y1089958D01*
X1061200Y1090208D01*
X1061093Y1090375D01*
X1060907Y1090500D01*
X1060187D01*
Y1088000D01*
X1061067D01*
X1061253Y1088167D01*
X1061360Y1088417D01*
X1061413Y1088708D01*
X1061360Y1089000D01*
X1061200Y1089250D01*
X1061013Y1089333D01*
X1060187D01*
G01X1063480Y1088000D02*
Y1089667D01*
G01Y1089375D02*
X1063373Y1089542D01*
X1063213Y1089625D01*
X1063027Y1089667D01*
X1062840Y1089583D01*
X1062680Y1089417D01*
X1062573Y1089167D01*
X1062520Y1088833D01*
X1062573Y1088500D01*
X1062680Y1088250D01*
X1062840Y1088083D01*
X1063027Y1088000D01*
X1063213Y1088042D01*
X1063373Y1088167D01*
X1063480Y1088333D01*
G01X1065200Y1090500D02*
Y1088000D01*
G01X1064827Y1089667D02*
X1065573D01*
G01X1067400Y1090500D02*
Y1088000D01*
G01X1067027Y1089667D02*
X1067773D01*
G01X1069200Y1089125D02*
X1070053D01*
X1069973Y1089417D01*
X1069840Y1089583D01*
X1069653Y1089667D01*
X1069467Y1089625D01*
X1069307Y1089500D01*
X1069200Y1089208D01*
X1069147Y1088958D01*
Y1088708D01*
X1069200Y1088458D01*
X1069333Y1088208D01*
X1069493Y1088042D01*
X1069680Y1088000D01*
X1069867Y1088083D01*
X1070053Y1088333D01*
G01X1071427Y1088000D02*
Y1089667D01*
G01Y1089333D02*
X1071560Y1089500D01*
X1071693Y1089625D01*
X1071880Y1089667D01*
X1072013Y1089625D01*
X1072173Y1089500D01*
G01X1073440Y1087250D02*
X1073600Y1087167D01*
X1073813Y1087250D01*
X1073947Y1087417D01*
X1074053Y1087625D01*
X1074213Y1088292D01*
X1074560Y1089667D01*
G01X1073707D02*
X1074213Y1088292D01*
G01X1053013Y1119333D02*
X1053120Y1119458D01*
X1053200Y1119667D01*
X1053253Y1119958D01*
X1053200Y1120208D01*
X1053093Y1120375D01*
X1052907Y1120500D01*
X1052187D01*
Y1118000D01*
X1053067D01*
X1053253Y1118167D01*
X1053360Y1118417D01*
X1053413Y1118708D01*
X1053360Y1119000D01*
X1053200Y1119250D01*
X1053013Y1119333D01*
X1052187D01*
G01X1054413Y1118500D02*
X1054573Y1118208D01*
X1054787Y1118042D01*
X1055027Y1118000D01*
X1055240Y1118042D01*
X1055453Y1118250D01*
X1055587Y1118500D01*
X1055613Y1118750D01*
X1055560Y1119042D01*
X1055373Y1119250D01*
X1055187Y1119333D01*
X1054947D01*
G01X1055187D02*
X1055347Y1119458D01*
X1055480Y1119667D01*
X1055533Y1119917D01*
X1055480Y1120167D01*
X1055347Y1120375D01*
X1055107Y1120500D01*
X1054867Y1120458D01*
X1054627Y1120292D01*
G01X1060133Y1118000D02*
X1060800Y1120500D01*
X1061467Y1118000D01*
G01X1061227Y1118875D02*
X1060373D01*
G01X1063213Y1119333D02*
X1063320Y1119458D01*
X1063400Y1119667D01*
X1063453Y1119958D01*
X1063400Y1120208D01*
X1063293Y1120375D01*
X1063107Y1120500D01*
X1062387D01*
Y1118000D01*
X1063267D01*
X1063453Y1118167D01*
X1063560Y1118417D01*
X1063613Y1118708D01*
X1063560Y1119000D01*
X1063400Y1119250D01*
X1063213Y1119333D01*
X1062387D01*
G01X1064613Y1118500D02*
X1064773Y1118208D01*
X1064987Y1118042D01*
X1065227Y1118000D01*
X1065440Y1118042D01*
X1065653Y1118250D01*
X1065787Y1118500D01*
X1065813Y1118750D01*
X1065760Y1119042D01*
X1065573Y1119250D01*
X1065387Y1119333D01*
X1065147D01*
G01X1065387D02*
X1065547Y1119458D01*
X1065680Y1119667D01*
X1065733Y1119917D01*
X1065680Y1120167D01*
X1065547Y1120375D01*
X1065307Y1120500D01*
X1065067Y1120458D01*
X1064827Y1120292D01*
G01X1067400Y1118000D02*
X1067587Y1118042D01*
X1067800Y1118167D01*
X1067933Y1118375D01*
X1067987Y1118667D01*
X1067933Y1118958D01*
X1067773Y1119208D01*
X1067533Y1119333D01*
X1067267D01*
X1067107Y1119417D01*
X1066973Y1119625D01*
X1066920Y1119917D01*
X1067000Y1120208D01*
X1067187Y1120417D01*
X1067400Y1120500D01*
X1067613Y1120417D01*
X1067800Y1120208D01*
X1067880Y1119917D01*
X1067827Y1119625D01*
X1067693Y1119417D01*
X1067533Y1119333D01*
X1067267D01*
X1067027Y1119208D01*
X1066867Y1118958D01*
X1066813Y1118667D01*
X1066867Y1118375D01*
X1067000Y1118167D01*
X1067213Y1118042D01*
X1067400Y1118000D01*
G01X1069600Y1120500D02*
Y1118000D01*
G01X1068987Y1120500D02*
X1070213D01*
G01X1071453Y1118833D02*
X1072147D01*
G01X1073413Y1118500D02*
X1073573Y1118208D01*
X1073787Y1118042D01*
X1074027Y1118000D01*
X1074240Y1118042D01*
X1074453Y1118250D01*
X1074587Y1118500D01*
X1074613Y1118750D01*
X1074560Y1119042D01*
X1074373Y1119250D01*
X1074187Y1119333D01*
X1073947D01*
G01X1074187D02*
X1074347Y1119458D01*
X1074480Y1119667D01*
X1074533Y1119917D01*
X1074480Y1120167D01*
X1074347Y1120375D01*
X1074107Y1120500D01*
X1073867Y1120458D01*
X1073627Y1120292D01*
G01X1075693Y1120083D02*
X1075853Y1120333D01*
X1076040Y1120458D01*
X1076253Y1120500D01*
X1076520Y1120417D01*
X1076707Y1120208D01*
X1076760Y1119958D01*
X1076733Y1119708D01*
X1076627Y1119500D01*
X1076093Y1119083D01*
X1075853Y1118792D01*
X1075693Y1118375D01*
X1075640Y1118000D01*
X1076760D01*
G01X1078400Y1117917D02*
X1078347Y1117958D01*
Y1118042D01*
X1078400Y1118083D01*
X1078453Y1118042D01*
Y1117958D01*
X1078400Y1117917D01*
G01X1080547Y1118000D02*
X1080600Y1118542D01*
X1080680Y1119000D01*
X1080787Y1119417D01*
X1080920Y1119875D01*
X1081133Y1120500D01*
X1080067D01*
G01X1082293Y1119042D02*
X1082480Y1119333D01*
X1082640Y1119500D01*
X1082853Y1119583D01*
X1083040Y1119500D01*
X1083173Y1119333D01*
X1083280Y1119083D01*
X1083307Y1118792D01*
X1083280Y1118542D01*
X1083173Y1118292D01*
X1083013Y1118083D01*
X1082827Y1118000D01*
X1082613Y1118083D01*
X1082427Y1118333D01*
X1082320Y1118708D01*
X1082293Y1119125D01*
X1082347Y1119667D01*
X1082427Y1119958D01*
X1082560Y1120250D01*
X1082747Y1120458D01*
X1082933Y1120500D01*
X1083120Y1120417D01*
X1083253Y1120208D01*
G01X1085000Y1118000D02*
X1085187Y1118042D01*
X1085400Y1118167D01*
X1085533Y1118375D01*
X1085587Y1118667D01*
X1085533Y1118958D01*
X1085373Y1119208D01*
X1085133Y1119333D01*
X1084867D01*
X1084707Y1119417D01*
X1084573Y1119625D01*
X1084520Y1119917D01*
X1084600Y1120208D01*
X1084787Y1120417D01*
X1085000Y1120500D01*
X1085213Y1120417D01*
X1085400Y1120208D01*
X1085480Y1119917D01*
X1085427Y1119625D01*
X1085293Y1119417D01*
X1085133Y1119333D01*
X1084867D01*
X1084627Y1119208D01*
X1084467Y1118958D01*
X1084413Y1118667D01*
X1084467Y1118375D01*
X1084600Y1118167D01*
X1084813Y1118042D01*
X1085000Y1118000D01*
G01X1086613D02*
Y1120500D01*
G01X1087627D02*
X1086613Y1118958D01*
G01X1087787Y1118000D02*
X1087067Y1119667D01*
G01X1088840Y1118000D02*
Y1120500D01*
G01X1089960D02*
Y1118000D01*
G01Y1119250D02*
X1088840D01*
G01X1091093Y1120500D02*
X1092107D01*
X1091093Y1118000D01*
X1092107D01*
G01X1049487Y1180292D02*
X1049327Y1180417D01*
X1049140Y1180500D01*
X1048927D01*
X1048687Y1180375D01*
X1048500Y1180167D01*
X1048367Y1179917D01*
X1048260Y1179500D01*
X1048233Y1179125D01*
X1048287Y1178750D01*
X1048367Y1178500D01*
X1048527Y1178250D01*
X1048713Y1178083D01*
X1048900Y1178000D01*
X1049087D01*
X1049273Y1178083D01*
X1049433Y1178208D01*
X1049567Y1178375D01*
G01X1051100Y1178000D02*
X1051287Y1178042D01*
X1051500Y1178167D01*
X1051633Y1178375D01*
X1051687Y1178667D01*
X1051633Y1178958D01*
X1051473Y1179208D01*
X1051233Y1179333D01*
X1050967D01*
X1050807Y1179417D01*
X1050673Y1179625D01*
X1050620Y1179917D01*
X1050700Y1180208D01*
X1050887Y1180417D01*
X1051100Y1180500D01*
X1051313Y1180417D01*
X1051500Y1180208D01*
X1051580Y1179917D01*
X1051527Y1179625D01*
X1051393Y1179417D01*
X1051233Y1179333D01*
X1050967D01*
X1050727Y1179208D01*
X1050567Y1178958D01*
X1050513Y1178667D01*
X1050567Y1178375D01*
X1050700Y1178167D01*
X1050913Y1178042D01*
X1051100Y1178000D01*
G01X1067267Y1008500D02*
Y1006000D01*
X1068333D01*
G01X1070000Y1007667D02*
Y1006000D01*
G01Y1008333D02*
X1069947Y1008375D01*
Y1008458D01*
X1070000Y1008500D01*
X1070053Y1008458D01*
Y1008375D01*
X1070000Y1008333D01*
G01X1071747Y1006000D02*
Y1007667D01*
G01Y1007250D02*
X1071853Y1007458D01*
X1072013Y1007625D01*
X1072227Y1007667D01*
X1072413Y1007625D01*
X1072573Y1007458D01*
X1072653Y1007167D01*
Y1006000D01*
G01X1073867D02*
Y1008500D01*
X1074533D01*
X1074747Y1008375D01*
X1074880Y1008208D01*
X1074933Y1007875D01*
X1074880Y1007542D01*
X1074720Y1007333D01*
X1074533Y1007208D01*
X1073867D01*
G01X1074533D02*
X1074933Y1006000D01*
G01X1076200Y1007125D02*
X1077053D01*
X1076973Y1007417D01*
X1076840Y1007583D01*
X1076653Y1007667D01*
X1076467Y1007625D01*
X1076307Y1007500D01*
X1076200Y1007208D01*
X1076147Y1006958D01*
Y1006708D01*
X1076200Y1006458D01*
X1076333Y1006208D01*
X1076493Y1006042D01*
X1076680Y1006000D01*
X1076867Y1006083D01*
X1077053Y1006333D01*
G01X1078427Y1005375D02*
X1078613Y1005208D01*
X1078827Y1005167D01*
X1079013Y1005208D01*
X1079173Y1005417D01*
X1079280Y1005708D01*
Y1007667D01*
G01Y1007333D02*
X1079173Y1007500D01*
X1079013Y1007625D01*
X1078827Y1007667D01*
X1078613Y1007583D01*
X1078480Y1007417D01*
X1078373Y1007125D01*
X1078320Y1006833D01*
X1078347Y1006583D01*
X1078453Y1006292D01*
X1078613Y1006083D01*
X1078827Y1006000D01*
X1078987Y1006042D01*
X1079173Y1006208D01*
X1079280Y1006375D01*
G01X1080387Y1016292D02*
X1080227Y1016417D01*
X1080040Y1016500D01*
X1079827D01*
X1079587Y1016375D01*
X1079400Y1016167D01*
X1079267Y1015917D01*
X1079160Y1015500D01*
X1079133Y1015125D01*
X1079187Y1014750D01*
X1079267Y1014500D01*
X1079427Y1014250D01*
X1079613Y1014083D01*
X1079800Y1014000D01*
X1079987D01*
X1080173Y1014083D01*
X1080333Y1014208D01*
X1080467Y1014375D01*
G01X1082000Y1014000D02*
Y1016500D01*
X1081680Y1016000D01*
G01Y1014000D02*
X1082320D01*
G01X1083747Y1014292D02*
X1083933Y1014083D01*
X1084147Y1014000D01*
X1084360Y1014083D01*
X1084547Y1014333D01*
X1084680Y1014708D01*
X1084733Y1015083D01*
Y1015542D01*
X1084680Y1015917D01*
X1084547Y1016250D01*
X1084387Y1016417D01*
X1084200Y1016500D01*
X1083987Y1016417D01*
X1083827Y1016250D01*
X1083720Y1016000D01*
X1083667Y1015667D01*
X1083720Y1015375D01*
X1083853Y1015083D01*
X1084013Y1014917D01*
X1084200Y1014875D01*
X1084413Y1014958D01*
X1084573Y1015167D01*
X1084733Y1015542D01*
G01X1075267Y1078500D02*
X1075400Y1078250D01*
X1075560Y1078083D01*
X1075747Y1078000D01*
X1075960Y1078083D01*
X1076120Y1078250D01*
X1076280Y1078500D01*
X1076333Y1078833D01*
Y1080500D01*
G01X1077467Y1078000D02*
Y1080500D01*
X1078107D01*
X1078320Y1080375D01*
X1078480Y1080083D01*
X1078533Y1079750D01*
X1078480Y1079417D01*
X1078347Y1079167D01*
X1078107Y1079042D01*
X1077467D01*
G01X1079613Y1078375D02*
X1079773Y1078167D01*
X1079960Y1078042D01*
X1080200Y1078000D01*
X1080440Y1078083D01*
X1080627Y1078250D01*
X1080760Y1078542D01*
X1080787Y1078875D01*
X1080733Y1079208D01*
X1080600Y1079417D01*
X1080413Y1079583D01*
X1080227Y1079625D01*
X1080040Y1079583D01*
X1079800Y1079417D01*
X1079880Y1080500D01*
X1080600D01*
G01X1070267Y1102000D02*
Y1104500D01*
X1070933D01*
X1071147Y1104375D01*
X1071280Y1104208D01*
X1071333Y1103875D01*
X1071280Y1103542D01*
X1071120Y1103333D01*
X1070933Y1103208D01*
X1070267D01*
G01X1070933D02*
X1071333Y1102000D01*
G01X1072947D02*
X1073000Y1102542D01*
X1073080Y1103000D01*
X1073187Y1103417D01*
X1073320Y1103875D01*
X1073533Y1104500D01*
X1072467D01*
G01X1089480Y1103937D02*
X1074520D01*
Y1096063D01*
X1089480D01*
Y1103937D01*
G01X1076367Y1114500D02*
Y1112000D01*
X1077433D01*
G01X1079100D02*
Y1114500D01*
X1078780Y1114000D01*
G01Y1112000D02*
X1079420D01*
G01X1074240Y1140000D02*
X1075360Y1142500D01*
G01X1074240D02*
X1075360Y1140000D01*
G01X1076493Y1142083D02*
X1076653Y1142333D01*
X1076840Y1142458D01*
X1077053Y1142500D01*
X1077320Y1142417D01*
X1077507Y1142208D01*
X1077560Y1141958D01*
X1077533Y1141708D01*
X1077427Y1141500D01*
X1076893Y1141083D01*
X1076653Y1140792D01*
X1076493Y1140375D01*
X1076440Y1140000D01*
X1077560D01*
G01X1081480Y1182937D02*
X1066520D01*
Y1175063D01*
X1081480D01*
Y1182937D01*
G01X1082240Y1162000D02*
X1083360Y1164500D01*
G01X1082240D02*
X1083360Y1162000D01*
G01X1085000D02*
Y1164500D01*
X1084680Y1164000D01*
G01Y1162000D02*
X1085320D01*
G01X1068267Y1184000D02*
Y1186500D01*
X1068933D01*
X1069147Y1186375D01*
X1069280Y1186208D01*
X1069333Y1185875D01*
X1069280Y1185542D01*
X1069120Y1185333D01*
X1068933Y1185208D01*
X1068267D01*
G01X1068933D02*
X1069333Y1184000D01*
G01X1070493Y1186083D02*
X1070653Y1186333D01*
X1070840Y1186458D01*
X1071053Y1186500D01*
X1071320Y1186417D01*
X1071507Y1186208D01*
X1071560Y1185958D01*
X1071533Y1185708D01*
X1071427Y1185500D01*
X1070893Y1185083D01*
X1070653Y1184792D01*
X1070493Y1184375D01*
X1070440Y1184000D01*
X1071560D01*
G01X1099267Y1038500D02*
X1099400Y1038250D01*
X1099560Y1038083D01*
X1099747Y1038000D01*
X1099960Y1038083D01*
X1100120Y1038250D01*
X1100280Y1038500D01*
X1100333Y1038833D01*
Y1040500D01*
G01X1101467Y1038000D02*
Y1040500D01*
X1102107D01*
X1102320Y1040375D01*
X1102480Y1040083D01*
X1102533Y1039750D01*
X1102480Y1039417D01*
X1102347Y1039167D01*
X1102107Y1039042D01*
X1101467D01*
G01X1103747Y1038292D02*
X1103933Y1038083D01*
X1104147Y1038000D01*
X1104360Y1038083D01*
X1104547Y1038333D01*
X1104680Y1038708D01*
X1104733Y1039083D01*
Y1039542D01*
X1104680Y1039917D01*
X1104547Y1040250D01*
X1104387Y1040417D01*
X1104200Y1040500D01*
X1103987Y1040417D01*
X1103827Y1040250D01*
X1103720Y1040000D01*
X1103667Y1039667D01*
X1103720Y1039375D01*
X1103853Y1039083D01*
X1104013Y1038917D01*
X1104200Y1038875D01*
X1104413Y1038958D01*
X1104573Y1039167D01*
X1104733Y1039542D01*
G01X1084213Y1080500D02*
Y1078708D01*
X1084320Y1078333D01*
X1084533Y1078083D01*
X1084800Y1078000D01*
X1085067Y1078083D01*
X1085280Y1078333D01*
X1085387Y1078708D01*
Y1080500D01*
G01X1086333Y1078000D02*
X1087000Y1080500D01*
X1087667Y1078000D01*
G01X1087427Y1078875D02*
X1086573D01*
G01X1088667Y1078000D02*
Y1080500D01*
X1089333D01*
X1089547Y1080375D01*
X1089680Y1080208D01*
X1089733Y1079875D01*
X1089680Y1079542D01*
X1089520Y1079333D01*
X1089333Y1079208D01*
X1088667D01*
G01X1089333D02*
X1089733Y1078000D01*
G01X1091400Y1080500D02*
Y1078000D01*
G01X1090787Y1080500D02*
X1092013D01*
G01X1098267Y1120000D02*
Y1122500D01*
X1098933D01*
X1099147Y1122375D01*
X1099280Y1122208D01*
X1099333Y1121875D01*
X1099280Y1121542D01*
X1099120Y1121333D01*
X1098933Y1121208D01*
X1098267D01*
G01X1098933D02*
X1099333Y1120000D01*
G01X1100493Y1121042D02*
X1100680Y1121333D01*
X1100840Y1121500D01*
X1101053Y1121583D01*
X1101240Y1121500D01*
X1101373Y1121333D01*
X1101480Y1121083D01*
X1101507Y1120792D01*
X1101480Y1120542D01*
X1101373Y1120292D01*
X1101213Y1120083D01*
X1101027Y1120000D01*
X1100813Y1120083D01*
X1100627Y1120333D01*
X1100520Y1120708D01*
X1100493Y1121125D01*
X1100547Y1121667D01*
X1100627Y1121958D01*
X1100760Y1122250D01*
X1100947Y1122458D01*
X1101133Y1122500D01*
X1101320Y1122417D01*
X1101453Y1122208D01*
G01X1100267Y1138000D02*
Y1140500D01*
X1100933D01*
X1101147Y1140375D01*
X1101280Y1140208D01*
X1101333Y1139875D01*
X1101280Y1139542D01*
X1101120Y1139333D01*
X1100933Y1139208D01*
X1100267D01*
G01X1100933D02*
X1101333Y1138000D01*
G01X1102413Y1138375D02*
X1102573Y1138167D01*
X1102760Y1138042D01*
X1103000Y1138000D01*
X1103240Y1138083D01*
X1103427Y1138250D01*
X1103560Y1138542D01*
X1103587Y1138875D01*
X1103533Y1139208D01*
X1103400Y1139417D01*
X1103213Y1139583D01*
X1103027Y1139625D01*
X1102840Y1139583D01*
X1102600Y1139417D01*
X1102680Y1140500D01*
X1103400D01*
G01X1099480Y1141937D02*
X1084520D01*
Y1134063D01*
X1099480D01*
Y1141937D01*
G01Y1131937D02*
X1084520D01*
Y1124063D01*
X1099480D01*
Y1131937D01*
G01X1103480Y1155937D02*
X1088520D01*
Y1148063D01*
X1103480D01*
Y1155937D01*
G01Y1165937D02*
X1088520D01*
Y1158063D01*
X1103480D01*
Y1165937D01*
G01X1100513Y1186833D02*
X1100620Y1186958D01*
X1100700Y1187167D01*
X1100753Y1187458D01*
X1100700Y1187708D01*
X1100593Y1187875D01*
X1100407Y1188000D01*
X1099687D01*
Y1185500D01*
X1100567D01*
X1100753Y1185667D01*
X1100860Y1185917D01*
X1100913Y1186208D01*
X1100860Y1186500D01*
X1100700Y1186750D01*
X1100513Y1186833D01*
X1099687D01*
G01X1101993Y1187583D02*
X1102153Y1187833D01*
X1102340Y1187958D01*
X1102553Y1188000D01*
X1102820Y1187917D01*
X1103007Y1187708D01*
X1103060Y1187458D01*
X1103033Y1187208D01*
X1102927Y1187000D01*
X1102393Y1186583D01*
X1102153Y1186292D01*
X1101993Y1185875D01*
X1101940Y1185500D01*
X1103060D01*
G01X1107213Y1040500D02*
Y1038708D01*
X1107320Y1038333D01*
X1107533Y1038083D01*
X1107800Y1038000D01*
X1108067Y1038083D01*
X1108280Y1038333D01*
X1108387Y1038708D01*
Y1040500D01*
G01X1109440Y1038333D02*
X1109653Y1038125D01*
X1109893Y1038000D01*
X1110107D01*
X1110320Y1038125D01*
X1110480Y1038333D01*
X1110560Y1038625D01*
X1110507Y1038917D01*
X1110373Y1039167D01*
X1110133Y1039333D01*
X1109813Y1039417D01*
X1109627Y1039583D01*
X1109547Y1039875D01*
X1109600Y1040167D01*
X1109733Y1040375D01*
X1109920Y1040500D01*
X1110107D01*
X1110293Y1040417D01*
X1110453Y1040208D01*
G01X1112413Y1039333D02*
X1112520Y1039458D01*
X1112600Y1039667D01*
X1112653Y1039958D01*
X1112600Y1040208D01*
X1112493Y1040375D01*
X1112307Y1040500D01*
X1111587D01*
Y1038000D01*
X1112467D01*
X1112653Y1038167D01*
X1112760Y1038417D01*
X1112813Y1038708D01*
X1112760Y1039000D01*
X1112600Y1039250D01*
X1112413Y1039333D01*
X1111587D01*
G01X1114800Y1063500D02*
Y1061000D01*
G01X1114187Y1063500D02*
X1115413D01*
G01X1116440Y1061000D02*
X1117560Y1063500D01*
G01X1116440D02*
X1117560Y1061000D01*
G01X1119200D02*
Y1063500D01*
X1118880Y1063000D01*
G01Y1061000D02*
X1119520D01*
G01X1116133Y1082000D02*
X1116800Y1084500D01*
X1117467Y1082000D01*
G01X1117227Y1082875D02*
X1116373D01*
G01X1118413Y1082000D02*
Y1084500D01*
X1118947D01*
X1119160Y1084375D01*
X1119320Y1084208D01*
X1119453Y1083958D01*
X1119560Y1083667D01*
X1119587Y1083250D01*
X1119560Y1082833D01*
X1119453Y1082542D01*
X1119320Y1082292D01*
X1119160Y1082125D01*
X1118947Y1082000D01*
X1118413D01*
G01X1121787Y1084292D02*
X1121627Y1084417D01*
X1121440Y1084500D01*
X1121227D01*
X1120987Y1084375D01*
X1120800Y1084167D01*
X1120667Y1083917D01*
X1120560Y1083500D01*
X1120533Y1083125D01*
X1120587Y1082750D01*
X1120667Y1082500D01*
X1120827Y1082250D01*
X1121013Y1082083D01*
X1121200Y1082000D01*
X1121387D01*
X1121573Y1082083D01*
X1121733Y1082208D01*
X1121867Y1082375D01*
G01X1117067Y1087700D02*
X1117200Y1087450D01*
X1117360Y1087283D01*
X1117547Y1087200D01*
X1117760Y1087283D01*
X1117920Y1087450D01*
X1118080Y1087700D01*
X1118133Y1088033D01*
Y1089700D01*
G01X1119267Y1087200D02*
Y1089700D01*
X1119907D01*
X1120120Y1089575D01*
X1120280Y1089283D01*
X1120333Y1088950D01*
X1120280Y1088617D01*
X1120147Y1088367D01*
X1119907Y1088242D01*
X1119267D01*
G01X1122320Y1087200D02*
Y1089700D01*
X1121333Y1087908D01*
X1122667D01*
G01X1115999Y1148000D02*
Y1150500D01*
X1115874Y1150000D01*
G01Y1148000D02*
X1116124D01*
G01X1104267Y1150000D02*
Y1152500D01*
X1104933D01*
X1105147Y1152375D01*
X1105280Y1152208D01*
X1105333Y1151875D01*
X1105280Y1151542D01*
X1105120Y1151333D01*
X1104933Y1151208D01*
X1104267D01*
G01X1104933D02*
X1105333Y1150000D01*
G01X1107320D02*
Y1152500D01*
X1106333Y1150708D01*
X1107667D01*
G01X1104267Y1158000D02*
Y1160500D01*
X1104933D01*
X1105147Y1160375D01*
X1105280Y1160208D01*
X1105333Y1159875D01*
X1105280Y1159542D01*
X1105120Y1159333D01*
X1104933Y1159208D01*
X1104267D01*
G01X1104933D02*
X1105333Y1158000D01*
G01X1106413Y1158500D02*
X1106573Y1158208D01*
X1106787Y1158042D01*
X1107027Y1158000D01*
X1107240Y1158042D01*
X1107453Y1158250D01*
X1107587Y1158500D01*
X1107613Y1158750D01*
X1107560Y1159042D01*
X1107373Y1159250D01*
X1107187Y1159333D01*
X1106947D01*
G01X1107187D02*
X1107347Y1159458D01*
X1107480Y1159667D01*
X1107533Y1159917D01*
X1107480Y1160167D01*
X1107347Y1160375D01*
X1107107Y1160500D01*
X1106867Y1160458D01*
X1106627Y1160292D01*
G01X1113013Y1189333D02*
X1113120Y1189458D01*
X1113200Y1189667D01*
X1113253Y1189958D01*
X1113200Y1190208D01*
X1113093Y1190375D01*
X1112907Y1190500D01*
X1112187D01*
Y1188000D01*
X1113067D01*
X1113253Y1188167D01*
X1113360Y1188417D01*
X1113413Y1188708D01*
X1113360Y1189000D01*
X1113200Y1189250D01*
X1113013Y1189333D01*
X1112187D01*
G01X1115000Y1188000D02*
Y1190500D01*
X1114680Y1190000D01*
G01Y1188000D02*
X1115320D01*
G01X1130240Y1006333D02*
X1130453Y1006125D01*
X1130693Y1006000D01*
X1130907D01*
X1131120Y1006125D01*
X1131280Y1006333D01*
X1131360Y1006625D01*
X1131307Y1006917D01*
X1131173Y1007167D01*
X1130933Y1007333D01*
X1130613Y1007417D01*
X1130427Y1007583D01*
X1130347Y1007875D01*
X1130400Y1008167D01*
X1130533Y1008375D01*
X1130720Y1008500D01*
X1130907D01*
X1131093Y1008417D01*
X1131253Y1008208D01*
G01X1133000Y1008500D02*
Y1006000D01*
G01X1132387Y1008500D02*
X1133613D01*
G01X1134507Y1006000D02*
Y1008500D01*
X1135200Y1006417D01*
X1135893Y1008500D01*
Y1006000D01*
G01X1136813Y1006500D02*
X1136973Y1006208D01*
X1137187Y1006042D01*
X1137427Y1006000D01*
X1137640Y1006042D01*
X1137853Y1006250D01*
X1137987Y1006500D01*
X1138013Y1006750D01*
X1137960Y1007042D01*
X1137773Y1007250D01*
X1137587Y1007333D01*
X1137347D01*
G01X1137587D02*
X1137747Y1007458D01*
X1137880Y1007667D01*
X1137933Y1007917D01*
X1137880Y1008167D01*
X1137747Y1008375D01*
X1137507Y1008500D01*
X1137267Y1008458D01*
X1137027Y1008292D01*
G01X1139093Y1008083D02*
X1139253Y1008333D01*
X1139440Y1008458D01*
X1139653Y1008500D01*
X1139920Y1008417D01*
X1140107Y1008208D01*
X1140160Y1007958D01*
X1140133Y1007708D01*
X1140027Y1007500D01*
X1139493Y1007083D01*
X1139253Y1006792D01*
X1139093Y1006375D01*
X1139040Y1006000D01*
X1140160D01*
G01X1141453Y1006833D02*
X1142147D01*
G01X1143493Y1006000D02*
Y1008500D01*
X1144507D01*
G01X1144133Y1007292D02*
X1143493D01*
G01X1146520Y1006000D02*
Y1008500D01*
X1145533Y1006708D01*
X1146867D01*
G01X1148720Y1006000D02*
Y1008500D01*
X1147733Y1006708D01*
X1149067D01*
G01X1150093Y1007042D02*
X1150280Y1007333D01*
X1150440Y1007500D01*
X1150653Y1007583D01*
X1150840Y1007500D01*
X1150973Y1007333D01*
X1151080Y1007083D01*
X1151107Y1006792D01*
X1151080Y1006542D01*
X1150973Y1006292D01*
X1150813Y1006083D01*
X1150627Y1006000D01*
X1150413Y1006083D01*
X1150227Y1006333D01*
X1150120Y1006708D01*
X1150093Y1007125D01*
X1150147Y1007667D01*
X1150227Y1007958D01*
X1150360Y1008250D01*
X1150547Y1008458D01*
X1150733Y1008500D01*
X1150920Y1008417D01*
X1151053Y1008208D01*
G01X1152267Y1006000D02*
Y1008500D01*
X1152933D01*
X1153147Y1008375D01*
X1153280Y1008208D01*
X1153333Y1007875D01*
X1153280Y1007542D01*
X1153120Y1007333D01*
X1152933Y1007208D01*
X1152267D01*
G01X1152933D02*
X1153333Y1006000D01*
G01X1155533D02*
X1154467D01*
Y1008500D01*
X1155533D01*
G01X1155107Y1007292D02*
X1154467D01*
G01X1157200Y1008500D02*
Y1006000D01*
G01X1156587Y1008500D02*
X1157813D01*
G01X1158893Y1007042D02*
X1159080Y1007333D01*
X1159240Y1007500D01*
X1159453Y1007583D01*
X1159640Y1007500D01*
X1159773Y1007333D01*
X1159880Y1007083D01*
X1159907Y1006792D01*
X1159880Y1006542D01*
X1159773Y1006292D01*
X1159613Y1006083D01*
X1159427Y1006000D01*
X1159213Y1006083D01*
X1159027Y1006333D01*
X1158920Y1006708D01*
X1158893Y1007125D01*
X1158947Y1007667D01*
X1159027Y1007958D01*
X1159160Y1008250D01*
X1159347Y1008458D01*
X1159533Y1008500D01*
X1159720Y1008417D01*
X1159853Y1008208D01*
G01X1161013Y1008500D02*
Y1006708D01*
X1161120Y1006333D01*
X1161333Y1006083D01*
X1161600Y1006000D01*
X1161867Y1006083D01*
X1162080Y1006333D01*
X1162187Y1006708D01*
Y1008500D01*
G01X1166213Y1007333D02*
X1166320Y1007458D01*
X1166400Y1007667D01*
X1166453Y1007958D01*
X1166400Y1008208D01*
X1166293Y1008375D01*
X1166107Y1008500D01*
X1165387D01*
Y1006000D01*
X1166267D01*
X1166453Y1006167D01*
X1166560Y1006417D01*
X1166613Y1006708D01*
X1166560Y1007000D01*
X1166400Y1007250D01*
X1166213Y1007333D01*
X1165387D01*
G01X1168200Y1006000D02*
X1168040Y1006042D01*
X1167880Y1006208D01*
X1167773Y1006500D01*
X1167720Y1006833D01*
X1167773Y1007167D01*
X1167880Y1007458D01*
X1168040Y1007625D01*
X1168200Y1007667D01*
X1168360Y1007625D01*
X1168520Y1007458D01*
X1168627Y1007167D01*
X1168653Y1006833D01*
X1168627Y1006500D01*
X1168520Y1006208D01*
X1168360Y1006042D01*
X1168200Y1006000D01*
G01X1170880D02*
Y1007667D01*
G01Y1007375D02*
X1170773Y1007542D01*
X1170613Y1007625D01*
X1170427Y1007667D01*
X1170240Y1007583D01*
X1170080Y1007417D01*
X1169973Y1007167D01*
X1169920Y1006833D01*
X1169973Y1006500D01*
X1170080Y1006250D01*
X1170240Y1006083D01*
X1170427Y1006000D01*
X1170613Y1006042D01*
X1170773Y1006167D01*
X1170880Y1006333D01*
G01X1172227Y1006000D02*
Y1007667D01*
G01Y1007333D02*
X1172360Y1007500D01*
X1172493Y1007625D01*
X1172680Y1007667D01*
X1172813Y1007625D01*
X1172973Y1007500D01*
G01X1175280Y1008500D02*
Y1006000D01*
G01Y1006375D02*
X1175173Y1006167D01*
X1175013Y1006042D01*
X1174827Y1006000D01*
X1174613Y1006083D01*
X1174453Y1006292D01*
X1174347Y1006542D01*
X1174320Y1006833D01*
X1174347Y1007125D01*
X1174453Y1007375D01*
X1174613Y1007583D01*
X1174827Y1007667D01*
X1175013Y1007625D01*
X1175147Y1007542D01*
X1175280Y1007375D01*
G01X1136387Y1027292D02*
X1136227Y1027417D01*
X1136040Y1027500D01*
X1135827D01*
X1135587Y1027375D01*
X1135400Y1027167D01*
X1135267Y1026917D01*
X1135160Y1026500D01*
X1135133Y1026125D01*
X1135187Y1025750D01*
X1135267Y1025500D01*
X1135427Y1025250D01*
X1135613Y1025083D01*
X1135800Y1025000D01*
X1135987D01*
X1136173Y1025083D01*
X1136333Y1025208D01*
X1136467Y1025375D01*
G01X1137493Y1027083D02*
X1137653Y1027333D01*
X1137840Y1027458D01*
X1138053Y1027500D01*
X1138320Y1027417D01*
X1138507Y1027208D01*
X1138560Y1026958D01*
X1138533Y1026708D01*
X1138427Y1026500D01*
X1137893Y1026083D01*
X1137653Y1025792D01*
X1137493Y1025375D01*
X1137440Y1025000D01*
X1138560D01*
G01X1140200Y1027500D02*
X1139987Y1027417D01*
X1139827Y1027208D01*
X1139720Y1026958D01*
X1139640Y1026625D01*
X1139613Y1026250D01*
X1139640Y1025875D01*
X1139720Y1025542D01*
X1139827Y1025292D01*
X1139987Y1025083D01*
X1140200Y1025000D01*
X1140413Y1025083D01*
X1140573Y1025292D01*
X1140680Y1025542D01*
X1140760Y1025875D01*
X1140787Y1026250D01*
X1140760Y1026625D01*
X1140680Y1026958D01*
X1140573Y1027208D01*
X1140413Y1027417D01*
X1140200Y1027500D01*
G01X1130800Y1032000D02*
Y1034500D01*
X1130480Y1034000D01*
G01Y1032000D02*
X1131120D01*
G01X1126960Y1055250D02*
X1127493D01*
Y1054500D01*
X1127333Y1054250D01*
X1127147Y1054083D01*
X1126880Y1054000D01*
X1126613Y1054083D01*
X1126427Y1054250D01*
X1126267Y1054500D01*
X1126160Y1054792D01*
X1126107Y1055125D01*
Y1055417D01*
X1126160Y1055667D01*
X1126267Y1055958D01*
X1126427Y1056208D01*
X1126587Y1056375D01*
X1126800Y1056500D01*
X1126987D01*
X1127200Y1056417D01*
X1127360Y1056250D01*
G01X1128387Y1054000D02*
Y1056500D01*
X1129613Y1054000D01*
Y1056500D01*
G01X1130613Y1054000D02*
Y1056500D01*
X1131147D01*
X1131360Y1056375D01*
X1131520Y1056208D01*
X1131653Y1055958D01*
X1131760Y1055667D01*
X1131787Y1055250D01*
X1131760Y1054833D01*
X1131653Y1054542D01*
X1131520Y1054292D01*
X1131360Y1054125D01*
X1131147Y1054000D01*
X1130613D01*
G01X1128387Y1090292D02*
X1128227Y1090417D01*
X1128040Y1090500D01*
X1127827D01*
X1127587Y1090375D01*
X1127400Y1090167D01*
X1127267Y1089917D01*
X1127160Y1089500D01*
X1127133Y1089125D01*
X1127187Y1088750D01*
X1127267Y1088500D01*
X1127427Y1088250D01*
X1127613Y1088083D01*
X1127800Y1088000D01*
X1127987D01*
X1128173Y1088083D01*
X1128333Y1088208D01*
X1128467Y1088375D01*
G01X1130000Y1088000D02*
Y1090500D01*
X1129680Y1090000D01*
G01Y1088000D02*
X1130320D01*
G01X1131613Y1088375D02*
X1131773Y1088167D01*
X1131960Y1088042D01*
X1132200Y1088000D01*
X1132440Y1088083D01*
X1132627Y1088250D01*
X1132760Y1088542D01*
X1132787Y1088875D01*
X1132733Y1089208D01*
X1132600Y1089417D01*
X1132413Y1089583D01*
X1132227Y1089625D01*
X1132040Y1089583D01*
X1131800Y1089417D01*
X1131880Y1090500D01*
X1132600D01*
G01X1139667Y1164900D02*
Y1167400D01*
X1140333D01*
X1140547Y1167275D01*
X1140680Y1167108D01*
X1140733Y1166775D01*
X1140680Y1166442D01*
X1140520Y1166233D01*
X1140333Y1166108D01*
X1139667D01*
G01X1140333D02*
X1140733Y1164900D01*
G01X1142400D02*
Y1167400D01*
X1142080Y1166900D01*
G01Y1164900D02*
X1142720D01*
G01X1144093Y1166983D02*
X1144253Y1167233D01*
X1144440Y1167358D01*
X1144653Y1167400D01*
X1144920Y1167317D01*
X1145107Y1167108D01*
X1145160Y1166858D01*
X1145133Y1166608D01*
X1145027Y1166400D01*
X1144493Y1165983D01*
X1144253Y1165692D01*
X1144093Y1165275D01*
X1144040Y1164900D01*
X1145160D01*
G01X1137420Y1168163D02*
X1152380D01*
Y1176037D01*
X1137420D01*
Y1168163D01*
G01X1152960Y1012250D02*
X1153493D01*
Y1011500D01*
X1153333Y1011250D01*
X1153147Y1011083D01*
X1152880Y1011000D01*
X1152613Y1011083D01*
X1152427Y1011250D01*
X1152267Y1011500D01*
X1152160Y1011792D01*
X1152107Y1012125D01*
Y1012417D01*
X1152160Y1012667D01*
X1152267Y1012958D01*
X1152427Y1013208D01*
X1152587Y1013375D01*
X1152800Y1013500D01*
X1152987D01*
X1153200Y1013417D01*
X1153360Y1013250D01*
G01X1154467Y1011000D02*
Y1013500D01*
X1155107D01*
X1155320Y1013375D01*
X1155480Y1013083D01*
X1155533Y1012750D01*
X1155480Y1012417D01*
X1155347Y1012167D01*
X1155107Y1012042D01*
X1154467D01*
G01X1156880Y1013500D02*
X1157520D01*
G01X1157200D02*
Y1011000D01*
G01X1156880D02*
X1157520D01*
G01X1159400D02*
X1159187Y1011042D01*
X1159000Y1011208D01*
X1158840Y1011458D01*
X1158733Y1011750D01*
X1158680Y1012083D01*
Y1012417D01*
X1158733Y1012750D01*
X1158840Y1013042D01*
X1159000Y1013292D01*
X1159187Y1013458D01*
X1159400Y1013500D01*
X1159613Y1013458D01*
X1159800Y1013292D01*
X1159960Y1013042D01*
X1160067Y1012750D01*
X1160120Y1012417D01*
Y1012083D01*
X1160067Y1011750D01*
X1159960Y1011458D01*
X1159800Y1011208D01*
X1159613Y1011042D01*
X1159400Y1011000D01*
G01X1161600D02*
Y1013500D01*
X1161280Y1013000D01*
G01Y1011000D02*
X1161920D01*
G01X1153267Y1014500D02*
X1153400Y1014250D01*
X1153560Y1014083D01*
X1153747Y1014000D01*
X1153960Y1014083D01*
X1154120Y1014250D01*
X1154280Y1014500D01*
X1154333Y1014833D01*
Y1016500D01*
G01X1155467Y1014000D02*
Y1016500D01*
X1156107D01*
X1156320Y1016375D01*
X1156480Y1016083D01*
X1156533Y1015750D01*
X1156480Y1015417D01*
X1156347Y1015167D01*
X1156107Y1015042D01*
X1155467D01*
G01X1158200Y1014000D02*
X1158387Y1014042D01*
X1158600Y1014167D01*
X1158733Y1014375D01*
X1158787Y1014667D01*
X1158733Y1014958D01*
X1158573Y1015208D01*
X1158333Y1015333D01*
X1158067D01*
X1157907Y1015417D01*
X1157773Y1015625D01*
X1157720Y1015917D01*
X1157800Y1016208D01*
X1157987Y1016417D01*
X1158200Y1016500D01*
X1158413Y1016417D01*
X1158600Y1016208D01*
X1158680Y1015917D01*
X1158627Y1015625D01*
X1158493Y1015417D01*
X1158333Y1015333D01*
X1158067D01*
X1157827Y1015208D01*
X1157667Y1014958D01*
X1157613Y1014667D01*
X1157667Y1014375D01*
X1157800Y1014167D01*
X1158013Y1014042D01*
X1158200Y1014000D01*
G01X1145387Y1044292D02*
X1145227Y1044417D01*
X1145040Y1044500D01*
X1144827D01*
X1144587Y1044375D01*
X1144400Y1044167D01*
X1144267Y1043917D01*
X1144160Y1043500D01*
X1144133Y1043125D01*
X1144187Y1042750D01*
X1144267Y1042500D01*
X1144427Y1042250D01*
X1144613Y1042083D01*
X1144800Y1042000D01*
X1144987D01*
X1145173Y1042083D01*
X1145333Y1042208D01*
X1145467Y1042375D01*
G01X1146493Y1044083D02*
X1146653Y1044333D01*
X1146840Y1044458D01*
X1147053Y1044500D01*
X1147320Y1044417D01*
X1147507Y1044208D01*
X1147560Y1043958D01*
X1147533Y1043708D01*
X1147427Y1043500D01*
X1146893Y1043083D01*
X1146653Y1042792D01*
X1146493Y1042375D01*
X1146440Y1042000D01*
X1147560D01*
G01X1149200D02*
Y1044500D01*
X1148880Y1044000D01*
G01Y1042000D02*
X1149520D01*
G01X1148087Y1057492D02*
X1147927Y1057617D01*
X1147740Y1057700D01*
X1147527D01*
X1147287Y1057575D01*
X1147100Y1057367D01*
X1146967Y1057117D01*
X1146860Y1056700D01*
X1146833Y1056325D01*
X1146887Y1055950D01*
X1146967Y1055700D01*
X1147127Y1055450D01*
X1147313Y1055283D01*
X1147500Y1055200D01*
X1147687D01*
X1147873Y1055283D01*
X1148033Y1055408D01*
X1148167Y1055575D01*
G01X1149700Y1055200D02*
Y1057700D01*
X1149380Y1057200D01*
G01Y1055200D02*
X1150020D01*
G01X1151393Y1056242D02*
X1151580Y1056533D01*
X1151740Y1056700D01*
X1151953Y1056783D01*
X1152140Y1056700D01*
X1152273Y1056533D01*
X1152380Y1056283D01*
X1152407Y1055992D01*
X1152380Y1055742D01*
X1152273Y1055492D01*
X1152113Y1055283D01*
X1151927Y1055200D01*
X1151713Y1055283D01*
X1151527Y1055533D01*
X1151420Y1055908D01*
X1151393Y1056325D01*
X1151447Y1056867D01*
X1151527Y1057158D01*
X1151660Y1057450D01*
X1151847Y1057658D01*
X1152033Y1057700D01*
X1152220Y1057617D01*
X1152353Y1057408D01*
G01X1148387Y1074292D02*
X1148227Y1074417D01*
X1148040Y1074500D01*
X1147827D01*
X1147587Y1074375D01*
X1147400Y1074167D01*
X1147267Y1073917D01*
X1147160Y1073500D01*
X1147133Y1073125D01*
X1147187Y1072750D01*
X1147267Y1072500D01*
X1147427Y1072250D01*
X1147613Y1072083D01*
X1147800Y1072000D01*
X1147987D01*
X1148173Y1072083D01*
X1148333Y1072208D01*
X1148467Y1072375D01*
G01X1150000Y1072000D02*
Y1074500D01*
X1149680Y1074000D01*
G01Y1072000D02*
X1150320D01*
G01X1152147D02*
X1152200Y1072542D01*
X1152280Y1073000D01*
X1152387Y1073417D01*
X1152520Y1073875D01*
X1152733Y1074500D01*
X1151667D01*
G01X1158667Y1164600D02*
Y1167100D01*
X1159333D01*
X1159547Y1166975D01*
X1159680Y1166808D01*
X1159733Y1166475D01*
X1159680Y1166142D01*
X1159520Y1165933D01*
X1159333Y1165808D01*
X1158667D01*
G01X1159333D02*
X1159733Y1164600D01*
G01X1161400D02*
Y1167100D01*
X1161080Y1166600D01*
G01Y1164600D02*
X1161720D01*
G01X1163600D02*
Y1167100D01*
X1163280Y1166600D01*
G01Y1164600D02*
X1163920D01*
G01X1155520Y1168063D02*
X1170480D01*
Y1175937D01*
X1155520D01*
Y1168063D01*
G01X1150960Y1191250D02*
X1151493D01*
Y1190500D01*
X1151333Y1190250D01*
X1151147Y1190083D01*
X1150880Y1190000D01*
X1150613Y1190083D01*
X1150427Y1190250D01*
X1150267Y1190500D01*
X1150160Y1190792D01*
X1150107Y1191125D01*
Y1191417D01*
X1150160Y1191667D01*
X1150267Y1191958D01*
X1150427Y1192208D01*
X1150587Y1192375D01*
X1150800Y1192500D01*
X1150987D01*
X1151200Y1192417D01*
X1151360Y1192250D01*
G01X1152387Y1190000D02*
Y1192500D01*
X1153613Y1190000D01*
Y1192500D01*
G01X1154613Y1190000D02*
Y1192500D01*
X1155147D01*
X1155360Y1192375D01*
X1155520Y1192208D01*
X1155653Y1191958D01*
X1155760Y1191667D01*
X1155787Y1191250D01*
X1155760Y1190833D01*
X1155653Y1190542D01*
X1155520Y1190292D01*
X1155360Y1190125D01*
X1155147Y1190000D01*
X1154613D01*
G01X1174960Y1012250D02*
X1175493D01*
Y1011500D01*
X1175333Y1011250D01*
X1175147Y1011083D01*
X1174880Y1011000D01*
X1174613Y1011083D01*
X1174427Y1011250D01*
X1174267Y1011500D01*
X1174160Y1011792D01*
X1174107Y1012125D01*
Y1012417D01*
X1174160Y1012667D01*
X1174267Y1012958D01*
X1174427Y1013208D01*
X1174587Y1013375D01*
X1174800Y1013500D01*
X1174987D01*
X1175200Y1013417D01*
X1175360Y1013250D01*
G01X1176467Y1011000D02*
Y1013500D01*
X1177107D01*
X1177320Y1013375D01*
X1177480Y1013083D01*
X1177533Y1012750D01*
X1177480Y1012417D01*
X1177347Y1012167D01*
X1177107Y1012042D01*
X1176467D01*
G01X1178880Y1013500D02*
X1179520D01*
G01X1179200D02*
Y1011000D01*
G01X1178880D02*
X1179520D01*
G01X1181400D02*
X1181187Y1011042D01*
X1181000Y1011208D01*
X1180840Y1011458D01*
X1180733Y1011750D01*
X1180680Y1012083D01*
Y1012417D01*
X1180733Y1012750D01*
X1180840Y1013042D01*
X1181000Y1013292D01*
X1181187Y1013458D01*
X1181400Y1013500D01*
X1181613Y1013458D01*
X1181800Y1013292D01*
X1181960Y1013042D01*
X1182067Y1012750D01*
X1182120Y1012417D01*
Y1012083D01*
X1182067Y1011750D01*
X1181960Y1011458D01*
X1181800Y1011208D01*
X1181613Y1011042D01*
X1181400Y1011000D01*
G01X1183093Y1013083D02*
X1183253Y1013333D01*
X1183440Y1013458D01*
X1183653Y1013500D01*
X1183920Y1013417D01*
X1184107Y1013208D01*
X1184160Y1012958D01*
X1184133Y1012708D01*
X1184027Y1012500D01*
X1183493Y1012083D01*
X1183253Y1011792D01*
X1183093Y1011375D01*
X1183040Y1011000D01*
X1184160D01*
G01X1165133Y1024500D02*
X1165800Y1022000D01*
X1166467Y1024500D01*
G01X1167413Y1022000D02*
Y1024500D01*
X1167947D01*
X1168160Y1024375D01*
X1168320Y1024208D01*
X1168453Y1023958D01*
X1168560Y1023667D01*
X1168587Y1023250D01*
X1168560Y1022833D01*
X1168453Y1022542D01*
X1168320Y1022292D01*
X1168160Y1022125D01*
X1167947Y1022000D01*
X1167413D01*
G01X1169613D02*
Y1024500D01*
X1170147D01*
X1170360Y1024375D01*
X1170520Y1024208D01*
X1170653Y1023958D01*
X1170760Y1023667D01*
X1170787Y1023250D01*
X1170760Y1022833D01*
X1170653Y1022542D01*
X1170520Y1022292D01*
X1170360Y1022125D01*
X1170147Y1022000D01*
X1169613D01*
G01X1176267Y1014500D02*
X1176400Y1014250D01*
X1176560Y1014083D01*
X1176747Y1014000D01*
X1176960Y1014083D01*
X1177120Y1014250D01*
X1177280Y1014500D01*
X1177333Y1014833D01*
Y1016500D01*
G01X1178467Y1014000D02*
Y1016500D01*
X1179107D01*
X1179320Y1016375D01*
X1179480Y1016083D01*
X1179533Y1015750D01*
X1179480Y1015417D01*
X1179347Y1015167D01*
X1179107Y1015042D01*
X1178467D01*
G01X1181147Y1014000D02*
X1181200Y1014542D01*
X1181280Y1015000D01*
X1181387Y1015417D01*
X1181520Y1015875D01*
X1181733Y1016500D01*
X1180667D01*
G01X1165480Y1044500D02*
X1166120D01*
G01X1165800D02*
Y1042000D01*
G01X1165480D02*
X1166120D01*
G01X1167387D02*
Y1044500D01*
X1168613Y1042000D01*
Y1044500D01*
G01X1165800Y1032000D02*
X1165587Y1032042D01*
X1165400Y1032208D01*
X1165240Y1032458D01*
X1165133Y1032750D01*
X1165080Y1033083D01*
Y1033417D01*
X1165133Y1033750D01*
X1165240Y1034042D01*
X1165400Y1034292D01*
X1165587Y1034458D01*
X1165800Y1034500D01*
X1166013Y1034458D01*
X1166200Y1034292D01*
X1166360Y1034042D01*
X1166467Y1033750D01*
X1166520Y1033417D01*
Y1033083D01*
X1166467Y1032750D01*
X1166360Y1032458D01*
X1166200Y1032208D01*
X1166013Y1032042D01*
X1165800Y1032000D01*
G01X1167413Y1034500D02*
Y1032708D01*
X1167520Y1032333D01*
X1167733Y1032083D01*
X1168000Y1032000D01*
X1168267Y1032083D01*
X1168480Y1032333D01*
X1168587Y1032708D01*
Y1034500D01*
G01X1170200D02*
Y1032000D01*
G01X1169587Y1034500D02*
X1170813D01*
G01X1165960Y1054250D02*
X1166493D01*
Y1053500D01*
X1166333Y1053250D01*
X1166147Y1053083D01*
X1165880Y1053000D01*
X1165613Y1053083D01*
X1165427Y1053250D01*
X1165267Y1053500D01*
X1165160Y1053792D01*
X1165107Y1054125D01*
Y1054417D01*
X1165160Y1054667D01*
X1165267Y1054958D01*
X1165427Y1055208D01*
X1165587Y1055375D01*
X1165800Y1055500D01*
X1165987D01*
X1166200Y1055417D01*
X1166360Y1055250D01*
G01X1167387Y1053000D02*
Y1055500D01*
X1168613Y1053000D01*
Y1055500D01*
G01X1169613Y1053000D02*
Y1055500D01*
X1170147D01*
X1170360Y1055375D01*
X1170520Y1055208D01*
X1170653Y1054958D01*
X1170760Y1054667D01*
X1170787Y1054250D01*
X1170760Y1053833D01*
X1170653Y1053542D01*
X1170520Y1053292D01*
X1170360Y1053125D01*
X1170147Y1053000D01*
X1169613D01*
G01X1172387Y1088292D02*
X1172227Y1088417D01*
X1172040Y1088500D01*
X1171827D01*
X1171587Y1088375D01*
X1171400Y1088167D01*
X1171267Y1087917D01*
X1171160Y1087500D01*
X1171133Y1087125D01*
X1171187Y1086750D01*
X1171267Y1086500D01*
X1171427Y1086250D01*
X1171613Y1086083D01*
X1171800Y1086000D01*
X1171987D01*
X1172173Y1086083D01*
X1172333Y1086208D01*
X1172467Y1086375D01*
G01X1174000Y1086000D02*
Y1088500D01*
X1173680Y1088000D01*
G01Y1086000D02*
X1174320D01*
G01X1175613Y1086500D02*
X1175773Y1086208D01*
X1175987Y1086042D01*
X1176227Y1086000D01*
X1176440Y1086042D01*
X1176653Y1086250D01*
X1176787Y1086500D01*
X1176813Y1086750D01*
X1176760Y1087042D01*
X1176573Y1087250D01*
X1176387Y1087333D01*
X1176147D01*
G01X1176387D02*
X1176547Y1087458D01*
X1176680Y1087667D01*
X1176733Y1087917D01*
X1176680Y1088167D01*
X1176547Y1088375D01*
X1176307Y1088500D01*
X1176067Y1088458D01*
X1175827Y1088292D01*
G01X1168313Y1108500D02*
Y1106708D01*
X1168420Y1106333D01*
X1168633Y1106083D01*
X1168900Y1106000D01*
X1169167Y1106083D01*
X1169380Y1106333D01*
X1169487Y1106708D01*
Y1108500D01*
G01X1171100Y1106000D02*
Y1108500D01*
X1170780Y1108000D01*
G01Y1106000D02*
X1171420D01*
G01X1178480Y1192500D02*
X1179120D01*
G01X1178800D02*
Y1190000D01*
G01X1178480D02*
X1179120D01*
G01X1180493Y1192083D02*
X1180653Y1192333D01*
X1180840Y1192458D01*
X1181053Y1192500D01*
X1181320Y1192417D01*
X1181507Y1192208D01*
X1181560Y1191958D01*
X1181533Y1191708D01*
X1181427Y1191500D01*
X1180893Y1191083D01*
X1180653Y1190792D01*
X1180493Y1190375D01*
X1180440Y1190000D01*
X1181560D01*
G01X1183787Y1192292D02*
X1183627Y1192417D01*
X1183440Y1192500D01*
X1183227D01*
X1182987Y1192375D01*
X1182800Y1192167D01*
X1182667Y1191917D01*
X1182560Y1191500D01*
X1182533Y1191125D01*
X1182587Y1190750D01*
X1182667Y1190500D01*
X1182827Y1190250D01*
X1183013Y1190083D01*
X1183200Y1190000D01*
X1183387D01*
X1183573Y1190083D01*
X1183733Y1190208D01*
X1183867Y1190375D01*
G01X1185400Y1190000D02*
Y1192500D01*
X1185080Y1192000D01*
G01Y1190000D02*
X1185720D01*
G01X1170267Y1190500D02*
X1170400Y1190250D01*
X1170560Y1190083D01*
X1170747Y1190000D01*
X1170960Y1190083D01*
X1171120Y1190250D01*
X1171280Y1190500D01*
X1171333Y1190833D01*
Y1192500D01*
G01X1172467Y1190000D02*
Y1192500D01*
X1173107D01*
X1173320Y1192375D01*
X1173480Y1192083D01*
X1173533Y1191750D01*
X1173480Y1191417D01*
X1173347Y1191167D01*
X1173107Y1191042D01*
X1172467D01*
G01X1174693Y1192083D02*
X1174853Y1192333D01*
X1175040Y1192458D01*
X1175253Y1192500D01*
X1175520Y1192417D01*
X1175707Y1192208D01*
X1175760Y1191958D01*
X1175733Y1191708D01*
X1175627Y1191500D01*
X1175093Y1191083D01*
X1174853Y1190792D01*
X1174693Y1190375D01*
X1174640Y1190000D01*
X1175760D01*
G01X1183013Y1007333D02*
X1183120Y1007458D01*
X1183200Y1007667D01*
X1183253Y1007958D01*
X1183200Y1008208D01*
X1183093Y1008375D01*
X1182907Y1008500D01*
X1182187D01*
Y1006000D01*
X1183067D01*
X1183253Y1006167D01*
X1183360Y1006417D01*
X1183413Y1006708D01*
X1183360Y1007000D01*
X1183200Y1007250D01*
X1183013Y1007333D01*
X1182187D01*
G01X1184547Y1007667D02*
Y1006500D01*
X1184653Y1006208D01*
X1184813Y1006042D01*
X1185000Y1006000D01*
X1185187Y1006042D01*
X1185347Y1006208D01*
X1185453Y1006500D01*
G01Y1006000D02*
Y1007667D01*
G01X1187200D02*
Y1006000D01*
G01Y1008333D02*
X1187147Y1008375D01*
Y1008458D01*
X1187200Y1008500D01*
X1187253Y1008458D01*
Y1008375D01*
X1187200Y1008333D01*
G01X1189400Y1006000D02*
Y1008500D01*
G01X1191600D02*
Y1006000D01*
G01X1191227Y1007667D02*
X1191973D01*
G01X1196213Y1007333D02*
X1196320Y1007458D01*
X1196400Y1007667D01*
X1196453Y1007958D01*
X1196400Y1008208D01*
X1196293Y1008375D01*
X1196107Y1008500D01*
X1195387D01*
Y1006000D01*
X1196267D01*
X1196453Y1006167D01*
X1196560Y1006417D01*
X1196613Y1006708D01*
X1196560Y1007000D01*
X1196400Y1007250D01*
X1196213Y1007333D01*
X1195387D01*
G01X1197640Y1005250D02*
X1197800Y1005167D01*
X1198013Y1005250D01*
X1198147Y1005417D01*
X1198253Y1005625D01*
X1198413Y1006292D01*
X1198760Y1007667D01*
G01X1197907D02*
X1198413Y1006292D01*
G01X1202040Y1006000D02*
Y1008500D01*
G01X1203160D02*
Y1006000D01*
G01Y1007250D02*
X1202040D01*
G01X1204240Y1005250D02*
X1204400Y1005167D01*
X1204613Y1005250D01*
X1204747Y1005417D01*
X1204853Y1005625D01*
X1205013Y1006292D01*
X1205360Y1007667D01*
G01X1204507D02*
X1205013Y1006292D01*
G01X1206547Y1007667D02*
Y1006500D01*
X1206653Y1006208D01*
X1206813Y1006042D01*
X1207000Y1006000D01*
X1207187Y1006042D01*
X1207347Y1006208D01*
X1207453Y1006500D01*
G01Y1006000D02*
Y1007667D01*
G01X1208747Y1006000D02*
Y1007667D01*
G01Y1007250D02*
X1208853Y1007458D01*
X1209013Y1007625D01*
X1209227Y1007667D01*
X1209413Y1007625D01*
X1209573Y1007458D01*
X1209653Y1007167D01*
Y1006000D01*
G01X1210973Y1005375D02*
X1211160Y1005208D01*
X1211320Y1005167D01*
X1211533Y1005250D01*
X1211693Y1005458D01*
X1211773Y1005833D01*
Y1007667D01*
G01Y1008333D02*
X1211720Y1008375D01*
Y1008458D01*
X1211773Y1008500D01*
X1211827Y1008458D01*
Y1008375D01*
X1211773Y1008333D01*
G01X1214080Y1006000D02*
Y1007667D01*
G01Y1007375D02*
X1213973Y1007542D01*
X1213813Y1007625D01*
X1213627Y1007667D01*
X1213440Y1007583D01*
X1213280Y1007417D01*
X1213173Y1007167D01*
X1213120Y1006833D01*
X1213173Y1006500D01*
X1213280Y1006250D01*
X1213440Y1006083D01*
X1213627Y1006000D01*
X1213813Y1006042D01*
X1213973Y1006167D01*
X1214080Y1006333D01*
G01X1215400Y1007125D02*
X1216253D01*
X1216173Y1007417D01*
X1216040Y1007583D01*
X1215853Y1007667D01*
X1215667Y1007625D01*
X1215507Y1007500D01*
X1215400Y1007208D01*
X1215347Y1006958D01*
Y1006708D01*
X1215400Y1006458D01*
X1215533Y1006208D01*
X1215693Y1006042D01*
X1215880Y1006000D01*
X1216067Y1006083D01*
X1216253Y1006333D01*
G01X1220787Y1008292D02*
X1220627Y1008417D01*
X1220440Y1008500D01*
X1220227D01*
X1219987Y1008375D01*
X1219800Y1008167D01*
X1219667Y1007917D01*
X1219560Y1007500D01*
X1219533Y1007125D01*
X1219587Y1006750D01*
X1219667Y1006500D01*
X1219827Y1006250D01*
X1220013Y1006083D01*
X1220200Y1006000D01*
X1220387D01*
X1220573Y1006083D01*
X1220733Y1006208D01*
X1220867Y1006375D01*
G01X1221947Y1006000D02*
Y1008500D01*
G01Y1007292D02*
X1222080Y1007500D01*
X1222213Y1007625D01*
X1222427Y1007667D01*
X1222587Y1007625D01*
X1222773Y1007458D01*
X1222853Y1007208D01*
Y1006000D01*
G01X1224600D02*
X1224440Y1006042D01*
X1224280Y1006208D01*
X1224173Y1006500D01*
X1224120Y1006833D01*
X1224173Y1007167D01*
X1224280Y1007458D01*
X1224440Y1007625D01*
X1224600Y1007667D01*
X1224760Y1007625D01*
X1224920Y1007458D01*
X1225027Y1007167D01*
X1225053Y1006833D01*
X1225027Y1006500D01*
X1224920Y1006208D01*
X1224760Y1006042D01*
X1224600Y1006000D01*
G01X1185267Y1022000D02*
Y1024500D01*
X1185907D01*
X1186120Y1024375D01*
X1186280Y1024083D01*
X1186333Y1023750D01*
X1186280Y1023417D01*
X1186147Y1023167D01*
X1185907Y1023042D01*
X1185267D01*
G01X1188000Y1022000D02*
X1187787Y1022042D01*
X1187600Y1022208D01*
X1187440Y1022458D01*
X1187333Y1022750D01*
X1187280Y1023083D01*
Y1023417D01*
X1187333Y1023750D01*
X1187440Y1024042D01*
X1187600Y1024292D01*
X1187787Y1024458D01*
X1188000Y1024500D01*
X1188213Y1024458D01*
X1188400Y1024292D01*
X1188560Y1024042D01*
X1188667Y1023750D01*
X1188720Y1023417D01*
Y1023083D01*
X1188667Y1022750D01*
X1188560Y1022458D01*
X1188400Y1022208D01*
X1188213Y1022042D01*
X1188000Y1022000D01*
G01X1189400Y1024500D02*
X1189773Y1022000D01*
X1190200Y1024500D01*
X1190627Y1022000D01*
X1191000Y1024500D01*
G01X1192933Y1022000D02*
X1191867D01*
Y1024500D01*
X1192933D01*
G01X1192507Y1023292D02*
X1191867D01*
G01X1194067Y1022000D02*
Y1024500D01*
X1194733D01*
X1194947Y1024375D01*
X1195080Y1024208D01*
X1195133Y1023875D01*
X1195080Y1023542D01*
X1194920Y1023333D01*
X1194733Y1023208D01*
X1194067D01*
G01X1194733D02*
X1195133Y1022000D01*
G01X1196267Y1025000D02*
Y1027500D01*
X1196933D01*
X1197147Y1027375D01*
X1197280Y1027208D01*
X1197333Y1026875D01*
X1197280Y1026542D01*
X1197120Y1026333D01*
X1196933Y1026208D01*
X1196267D01*
G01X1196933D02*
X1197333Y1025000D01*
G01X1198547Y1025292D02*
X1198733Y1025083D01*
X1198947Y1025000D01*
X1199160Y1025083D01*
X1199347Y1025333D01*
X1199480Y1025708D01*
X1199533Y1026083D01*
Y1026542D01*
X1199480Y1026917D01*
X1199347Y1027250D01*
X1199187Y1027417D01*
X1199000Y1027500D01*
X1198787Y1027417D01*
X1198627Y1027250D01*
X1198520Y1027000D01*
X1198467Y1026667D01*
X1198520Y1026375D01*
X1198653Y1026083D01*
X1198813Y1025917D01*
X1199000Y1025875D01*
X1199213Y1025958D01*
X1199373Y1026167D01*
X1199533Y1026542D01*
G01X1189267Y1025000D02*
Y1027500D01*
X1189933D01*
X1190147Y1027375D01*
X1190280Y1027208D01*
X1190333Y1026875D01*
X1190280Y1026542D01*
X1190120Y1026333D01*
X1189933Y1026208D01*
X1189267D01*
G01X1189933D02*
X1190333Y1025000D01*
G01X1192000D02*
X1192187Y1025042D01*
X1192400Y1025167D01*
X1192533Y1025375D01*
X1192587Y1025667D01*
X1192533Y1025958D01*
X1192373Y1026208D01*
X1192133Y1026333D01*
X1191867D01*
X1191707Y1026417D01*
X1191573Y1026625D01*
X1191520Y1026917D01*
X1191600Y1027208D01*
X1191787Y1027417D01*
X1192000Y1027500D01*
X1192213Y1027417D01*
X1192400Y1027208D01*
X1192480Y1026917D01*
X1192427Y1026625D01*
X1192293Y1026417D01*
X1192133Y1026333D01*
X1191867D01*
X1191627Y1026208D01*
X1191467Y1025958D01*
X1191413Y1025667D01*
X1191467Y1025375D01*
X1191600Y1025167D01*
X1191813Y1025042D01*
X1192000Y1025000D01*
G01X1197937Y1028520D02*
Y1043480D01*
X1190063D01*
Y1028520D01*
X1197937D01*
G01X1187313Y1045000D02*
Y1047500D01*
X1187847D01*
X1188060Y1047375D01*
X1188220Y1047208D01*
X1188353Y1046958D01*
X1188460Y1046667D01*
X1188487Y1046250D01*
X1188460Y1045833D01*
X1188353Y1045542D01*
X1188220Y1045292D01*
X1188060Y1045125D01*
X1187847Y1045000D01*
X1187313D01*
G01X1190100D02*
Y1047500D01*
X1189780Y1047000D01*
G01Y1045000D02*
X1190420D01*
G01X1193487Y1088292D02*
X1193327Y1088417D01*
X1193140Y1088500D01*
X1192927D01*
X1192687Y1088375D01*
X1192500Y1088167D01*
X1192367Y1087917D01*
X1192260Y1087500D01*
X1192233Y1087125D01*
X1192287Y1086750D01*
X1192367Y1086500D01*
X1192527Y1086250D01*
X1192713Y1086083D01*
X1192900Y1086000D01*
X1193087D01*
X1193273Y1086083D01*
X1193433Y1086208D01*
X1193567Y1086375D01*
G01X1195100Y1086000D02*
Y1088500D01*
X1194780Y1088000D01*
G01Y1086000D02*
X1195420D01*
G01X1194960Y1105250D02*
X1195493D01*
Y1104500D01*
X1195333Y1104250D01*
X1195147Y1104083D01*
X1194880Y1104000D01*
X1194613Y1104083D01*
X1194427Y1104250D01*
X1194267Y1104500D01*
X1194160Y1104792D01*
X1194107Y1105125D01*
Y1105417D01*
X1194160Y1105667D01*
X1194267Y1105958D01*
X1194427Y1106208D01*
X1194587Y1106375D01*
X1194800Y1106500D01*
X1194987D01*
X1195200Y1106417D01*
X1195360Y1106250D01*
G01X1196387Y1104000D02*
Y1106500D01*
X1197613Y1104000D01*
Y1106500D01*
G01X1198613Y1104000D02*
Y1106500D01*
X1199147D01*
X1199360Y1106375D01*
X1199520Y1106208D01*
X1199653Y1105958D01*
X1199760Y1105667D01*
X1199787Y1105250D01*
X1199760Y1104833D01*
X1199653Y1104542D01*
X1199520Y1104292D01*
X1199360Y1104125D01*
X1199147Y1104000D01*
X1198613D01*
G01X1184240Y1153333D02*
X1184453Y1153125D01*
X1184693Y1153000D01*
X1184907D01*
X1185120Y1153125D01*
X1185280Y1153333D01*
X1185360Y1153625D01*
X1185307Y1153917D01*
X1185173Y1154167D01*
X1184933Y1154333D01*
X1184613Y1154417D01*
X1184427Y1154583D01*
X1184347Y1154875D01*
X1184400Y1155167D01*
X1184533Y1155375D01*
X1184720Y1155500D01*
X1184907D01*
X1185093Y1155417D01*
X1185253Y1155208D01*
G01X1186200Y1155500D02*
X1186573Y1153000D01*
X1187000Y1155500D01*
X1187427Y1153000D01*
X1187800Y1155500D01*
G01X1188613Y1153000D02*
Y1155500D01*
X1189147D01*
X1189360Y1155375D01*
X1189520Y1155208D01*
X1189653Y1154958D01*
X1189760Y1154667D01*
X1189787Y1154250D01*
X1189760Y1153833D01*
X1189653Y1153542D01*
X1189520Y1153292D01*
X1189360Y1153125D01*
X1189147Y1153000D01*
X1188613D01*
G01X1184267Y1156500D02*
X1184400Y1156250D01*
X1184560Y1156083D01*
X1184747Y1156000D01*
X1184960Y1156083D01*
X1185120Y1156250D01*
X1185280Y1156500D01*
X1185333Y1156833D01*
Y1158500D01*
G01X1186467Y1156000D02*
Y1158500D01*
X1187107D01*
X1187320Y1158375D01*
X1187480Y1158083D01*
X1187533Y1157750D01*
X1187480Y1157417D01*
X1187347Y1157167D01*
X1187107Y1157042D01*
X1186467D01*
G01X1188693D02*
X1188880Y1157333D01*
X1189040Y1157500D01*
X1189253Y1157583D01*
X1189440Y1157500D01*
X1189573Y1157333D01*
X1189680Y1157083D01*
X1189707Y1156792D01*
X1189680Y1156542D01*
X1189573Y1156292D01*
X1189413Y1156083D01*
X1189227Y1156000D01*
X1189013Y1156083D01*
X1188827Y1156333D01*
X1188720Y1156708D01*
X1188693Y1157125D01*
X1188747Y1157667D01*
X1188827Y1157958D01*
X1188960Y1158250D01*
X1189147Y1158458D01*
X1189333Y1158500D01*
X1189520Y1158417D01*
X1189653Y1158208D01*
G01X1207240Y1014333D02*
X1207453Y1014125D01*
X1207693Y1014000D01*
X1207907D01*
X1208120Y1014125D01*
X1208280Y1014333D01*
X1208360Y1014625D01*
X1208307Y1014917D01*
X1208173Y1015167D01*
X1207933Y1015333D01*
X1207613Y1015417D01*
X1207427Y1015583D01*
X1207347Y1015875D01*
X1207400Y1016167D01*
X1207533Y1016375D01*
X1207720Y1016500D01*
X1207907D01*
X1208093Y1016417D01*
X1208253Y1016208D01*
G01X1209467Y1014000D02*
Y1016500D01*
X1210107D01*
X1210320Y1016375D01*
X1210480Y1016083D01*
X1210533Y1015750D01*
X1210480Y1015417D01*
X1210347Y1015167D01*
X1210107Y1015042D01*
X1209467D01*
G01X1211533Y1014000D02*
X1212200Y1016500D01*
X1212867Y1014000D01*
G01X1212627Y1014875D02*
X1211773D01*
G01X1213867Y1014000D02*
Y1016500D01*
X1214533D01*
X1214747Y1016375D01*
X1214880Y1016208D01*
X1214933Y1015875D01*
X1214880Y1015542D01*
X1214720Y1015333D01*
X1214533Y1015208D01*
X1213867D01*
G01X1214533D02*
X1214933Y1014000D01*
G01X1217133D02*
X1216067D01*
Y1016500D01*
X1217133D01*
G01X1216707Y1015292D02*
X1216067D01*
G01X1218800Y1014000D02*
Y1016500D01*
X1218480Y1016000D01*
G01Y1014000D02*
X1219120D01*
G01X1208387Y1020292D02*
X1208227Y1020417D01*
X1208040Y1020500D01*
X1207827D01*
X1207587Y1020375D01*
X1207400Y1020167D01*
X1207267Y1019917D01*
X1207160Y1019500D01*
X1207133Y1019125D01*
X1207187Y1018750D01*
X1207267Y1018500D01*
X1207427Y1018250D01*
X1207613Y1018083D01*
X1207800Y1018000D01*
X1207987D01*
X1208173Y1018083D01*
X1208333Y1018208D01*
X1208467Y1018375D01*
G01X1209493Y1020083D02*
X1209653Y1020333D01*
X1209840Y1020458D01*
X1210053Y1020500D01*
X1210320Y1020417D01*
X1210507Y1020208D01*
X1210560Y1019958D01*
X1210533Y1019708D01*
X1210427Y1019500D01*
X1209893Y1019083D01*
X1209653Y1018792D01*
X1209493Y1018375D01*
X1209440Y1018000D01*
X1210560D01*
G01X1211693Y1020083D02*
X1211853Y1020333D01*
X1212040Y1020458D01*
X1212253Y1020500D01*
X1212520Y1020417D01*
X1212707Y1020208D01*
X1212760Y1019958D01*
X1212733Y1019708D01*
X1212627Y1019500D01*
X1212093Y1019083D01*
X1211853Y1018792D01*
X1211693Y1018375D01*
X1211640Y1018000D01*
X1212760D01*
G01X1207937Y1026520D02*
Y1041480D01*
X1200063D01*
Y1026520D01*
X1207937D01*
G01X1217937D02*
Y1041480D01*
X1210063D01*
Y1026520D01*
X1217937D01*
G01X1200133Y1060000D02*
X1200800Y1062500D01*
X1201467Y1060000D01*
G01X1201227Y1060875D02*
X1200373D01*
G01X1202467Y1062500D02*
Y1060000D01*
X1203533D01*
G01X1204507D02*
Y1062500D01*
X1205200Y1060417D01*
X1205893Y1062500D01*
Y1060000D01*
G01X1207400D02*
Y1062500D01*
X1207080Y1062000D01*
G01Y1060000D02*
X1207720D01*
G01X1216133Y1059000D02*
X1216800Y1061500D01*
X1217467Y1059000D01*
G01X1217227Y1059875D02*
X1216373D01*
G01X1218467Y1061500D02*
Y1059000D01*
X1219533D01*
G01X1220507D02*
Y1061500D01*
X1221200Y1059417D01*
X1221893Y1061500D01*
Y1059000D01*
G01X1222893Y1061083D02*
X1223053Y1061333D01*
X1223240Y1061458D01*
X1223453Y1061500D01*
X1223720Y1061417D01*
X1223907Y1061208D01*
X1223960Y1060958D01*
X1223933Y1060708D01*
X1223827Y1060500D01*
X1223293Y1060083D01*
X1223053Y1059792D01*
X1222893Y1059375D01*
X1222840Y1059000D01*
X1223960D01*
G01X1207313Y1050000D02*
Y1052500D01*
X1207847D01*
X1208060Y1052375D01*
X1208220Y1052208D01*
X1208353Y1051958D01*
X1208460Y1051667D01*
X1208487Y1051250D01*
X1208460Y1050833D01*
X1208353Y1050542D01*
X1208220Y1050292D01*
X1208060Y1050125D01*
X1207847Y1050000D01*
X1207313D01*
G01X1209593Y1052083D02*
X1209753Y1052333D01*
X1209940Y1052458D01*
X1210153Y1052500D01*
X1210420Y1052417D01*
X1210607Y1052208D01*
X1210660Y1051958D01*
X1210633Y1051708D01*
X1210527Y1051500D01*
X1209993Y1051083D01*
X1209753Y1050792D01*
X1209593Y1050375D01*
X1209540Y1050000D01*
X1210660D01*
G01X1216480Y1074500D02*
X1217120D01*
G01X1216800D02*
Y1072000D01*
G01X1216480D02*
X1217120D01*
G01X1218493Y1074083D02*
X1218653Y1074333D01*
X1218840Y1074458D01*
X1219053Y1074500D01*
X1219320Y1074417D01*
X1219507Y1074208D01*
X1219560Y1073958D01*
X1219533Y1073708D01*
X1219427Y1073500D01*
X1218893Y1073083D01*
X1218653Y1072792D01*
X1218493Y1072375D01*
X1218440Y1072000D01*
X1219560D01*
G01X1221787Y1074292D02*
X1221627Y1074417D01*
X1221440Y1074500D01*
X1221227D01*
X1220987Y1074375D01*
X1220800Y1074167D01*
X1220667Y1073917D01*
X1220560Y1073500D01*
X1220533Y1073125D01*
X1220587Y1072750D01*
X1220667Y1072500D01*
X1220827Y1072250D01*
X1221013Y1072083D01*
X1221200Y1072000D01*
X1221387D01*
X1221573Y1072083D01*
X1221733Y1072208D01*
X1221867Y1072375D01*
G01X1222893Y1074083D02*
X1223053Y1074333D01*
X1223240Y1074458D01*
X1223453Y1074500D01*
X1223720Y1074417D01*
X1223907Y1074208D01*
X1223960Y1073958D01*
X1223933Y1073708D01*
X1223827Y1073500D01*
X1223293Y1073083D01*
X1223053Y1072792D01*
X1222893Y1072375D01*
X1222840Y1072000D01*
X1223960D01*
G01X1215767Y1106000D02*
X1215900Y1105750D01*
X1216060Y1105583D01*
X1216247Y1105500D01*
X1216460Y1105583D01*
X1216620Y1105750D01*
X1216780Y1106000D01*
X1216833Y1106333D01*
Y1108000D01*
G01X1217967Y1105500D02*
Y1108000D01*
X1218607D01*
X1218820Y1107875D01*
X1218980Y1107583D01*
X1219033Y1107250D01*
X1218980Y1106917D01*
X1218847Y1106667D01*
X1218607Y1106542D01*
X1217967D01*
G01X1220700Y1105500D02*
Y1108000D01*
X1220380Y1107500D01*
G01Y1105500D02*
X1221020D01*
G01X1216480Y1142500D02*
X1217120D01*
G01X1216800D02*
Y1140000D01*
G01X1216480D02*
X1217120D01*
G01X1218493Y1142083D02*
X1218653Y1142333D01*
X1218840Y1142458D01*
X1219053Y1142500D01*
X1219320Y1142417D01*
X1219507Y1142208D01*
X1219560Y1141958D01*
X1219533Y1141708D01*
X1219427Y1141500D01*
X1218893Y1141083D01*
X1218653Y1140792D01*
X1218493Y1140375D01*
X1218440Y1140000D01*
X1219560D01*
G01X1221787Y1142292D02*
X1221627Y1142417D01*
X1221440Y1142500D01*
X1221227D01*
X1220987Y1142375D01*
X1220800Y1142167D01*
X1220667Y1141917D01*
X1220560Y1141500D01*
X1220533Y1141125D01*
X1220587Y1140750D01*
X1220667Y1140500D01*
X1220827Y1140250D01*
X1221013Y1140083D01*
X1221200Y1140000D01*
X1221387D01*
X1221573Y1140083D01*
X1221733Y1140208D01*
X1221867Y1140375D01*
G01X1222813Y1140500D02*
X1222973Y1140208D01*
X1223187Y1140042D01*
X1223427Y1140000D01*
X1223640Y1140042D01*
X1223853Y1140250D01*
X1223987Y1140500D01*
X1224013Y1140750D01*
X1223960Y1141042D01*
X1223773Y1141250D01*
X1223587Y1141333D01*
X1223347D01*
G01X1223587D02*
X1223747Y1141458D01*
X1223880Y1141667D01*
X1223933Y1141917D01*
X1223880Y1142167D01*
X1223747Y1142375D01*
X1223507Y1142500D01*
X1223267Y1142458D01*
X1223027Y1142292D01*
G01X1216960Y1171250D02*
X1217493D01*
Y1170500D01*
X1217333Y1170250D01*
X1217147Y1170083D01*
X1216880Y1170000D01*
X1216613Y1170083D01*
X1216427Y1170250D01*
X1216267Y1170500D01*
X1216160Y1170792D01*
X1216107Y1171125D01*
Y1171417D01*
X1216160Y1171667D01*
X1216267Y1171958D01*
X1216427Y1172208D01*
X1216587Y1172375D01*
X1216800Y1172500D01*
X1216987D01*
X1217200Y1172417D01*
X1217360Y1172250D01*
G01X1218387Y1170000D02*
Y1172500D01*
X1219613Y1170000D01*
Y1172500D01*
G01X1220613Y1170000D02*
Y1172500D01*
X1221147D01*
X1221360Y1172375D01*
X1221520Y1172208D01*
X1221653Y1171958D01*
X1221760Y1171667D01*
X1221787Y1171250D01*
X1221760Y1170833D01*
X1221653Y1170542D01*
X1221520Y1170292D01*
X1221360Y1170125D01*
X1221147Y1170000D01*
X1220613D01*
G01X1214267Y1178500D02*
X1214400Y1178250D01*
X1214560Y1178083D01*
X1214747Y1178000D01*
X1214960Y1178083D01*
X1215120Y1178250D01*
X1215280Y1178500D01*
X1215333Y1178833D01*
Y1180500D01*
G01X1216467Y1178000D02*
Y1180500D01*
X1217107D01*
X1217320Y1180375D01*
X1217480Y1180083D01*
X1217533Y1179750D01*
X1217480Y1179417D01*
X1217347Y1179167D01*
X1217107Y1179042D01*
X1216467D01*
G01X1218613Y1178500D02*
X1218773Y1178208D01*
X1218987Y1178042D01*
X1219227Y1178000D01*
X1219440Y1178042D01*
X1219653Y1178250D01*
X1219787Y1178500D01*
X1219813Y1178750D01*
X1219760Y1179042D01*
X1219573Y1179250D01*
X1219387Y1179333D01*
X1219147D01*
G01X1219387D02*
X1219547Y1179458D01*
X1219680Y1179667D01*
X1219733Y1179917D01*
X1219680Y1180167D01*
X1219547Y1180375D01*
X1219307Y1180500D01*
X1219067Y1180458D01*
X1218827Y1180292D01*
G01X1202960Y1181250D02*
X1203493D01*
Y1180500D01*
X1203333Y1180250D01*
X1203147Y1180083D01*
X1202880Y1180000D01*
X1202613Y1180083D01*
X1202427Y1180250D01*
X1202267Y1180500D01*
X1202160Y1180792D01*
X1202107Y1181125D01*
Y1181417D01*
X1202160Y1181667D01*
X1202267Y1181958D01*
X1202427Y1182208D01*
X1202587Y1182375D01*
X1202800Y1182500D01*
X1202987D01*
X1203200Y1182417D01*
X1203360Y1182250D01*
G01X1204387Y1180000D02*
Y1182500D01*
X1205613Y1180000D01*
Y1182500D01*
G01X1206613Y1180000D02*
Y1182500D01*
X1207147D01*
X1207360Y1182375D01*
X1207520Y1182208D01*
X1207653Y1181958D01*
X1207760Y1181667D01*
X1207787Y1181250D01*
X1207760Y1180833D01*
X1207653Y1180542D01*
X1207520Y1180292D01*
X1207360Y1180125D01*
X1207147Y1180000D01*
X1206613D01*
G01X1219267Y1023000D02*
Y1025500D01*
X1219933D01*
X1220147Y1025375D01*
X1220280Y1025208D01*
X1220333Y1024875D01*
X1220280Y1024542D01*
X1220120Y1024333D01*
X1219933Y1024208D01*
X1219267D01*
G01X1219933D02*
X1220333Y1023000D01*
G01X1222000D02*
Y1025500D01*
X1221680Y1025000D01*
G01Y1023000D02*
X1222320D01*
G01X1224200Y1025500D02*
X1223987Y1025417D01*
X1223827Y1025208D01*
X1223720Y1024958D01*
X1223640Y1024625D01*
X1223613Y1024250D01*
X1223640Y1023875D01*
X1223720Y1023542D01*
X1223827Y1023292D01*
X1223987Y1023083D01*
X1224200Y1023000D01*
X1224413Y1023083D01*
X1224573Y1023292D01*
X1224680Y1023542D01*
X1224760Y1023875D01*
X1224787Y1024250D01*
X1224760Y1024625D01*
X1224680Y1024958D01*
X1224573Y1025208D01*
X1224413Y1025417D01*
X1224200Y1025500D01*
G01X1217313Y1050000D02*
Y1052500D01*
X1217847D01*
X1218060Y1052375D01*
X1218220Y1052208D01*
X1218353Y1051958D01*
X1218460Y1051667D01*
X1218487Y1051250D01*
X1218460Y1050833D01*
X1218353Y1050542D01*
X1218220Y1050292D01*
X1218060Y1050125D01*
X1217847Y1050000D01*
X1217313D01*
G01X1219513Y1050500D02*
X1219673Y1050208D01*
X1219887Y1050042D01*
X1220127Y1050000D01*
X1220340Y1050042D01*
X1220553Y1050250D01*
X1220687Y1050500D01*
X1220713Y1050750D01*
X1220660Y1051042D01*
X1220473Y1051250D01*
X1220287Y1051333D01*
X1220047D01*
G01X1220287D02*
X1220447Y1051458D01*
X1220580Y1051667D01*
X1220633Y1051917D01*
X1220580Y1052167D01*
X1220447Y1052375D01*
X1220207Y1052500D01*
X1219967Y1052458D01*
X1219727Y1052292D01*
G54D14*
G01X1063905Y1026200D02*
X1067040D01*
G01X1056300Y1041800D02*
Y1026200D01*
G01D02*
X1057985D01*
G01X1052300Y1019650D02*
G02I-500J0D01*
G01X1062490Y1041800D02*
X1056300D01*
G01X1082015Y1026200D02*
X1083700D01*
G01X1072960D02*
X1076095D01*
G01X1083700D02*
Y1041800D01*
G01D02*
X1077510D01*
G01X1098649Y1006183D02*
Y999278D01*
G01D02*
X1129949D01*
G01X1098649Y1027640D02*
Y1014903D01*
G01X1105690Y1036478D02*
X1098649D01*
G01X1119800Y1114329D02*
Y1110800D01*
G01D02*
X1123329D01*
G01Y1151200D02*
X1119800D01*
G01D02*
Y1147671D01*
G01X1113328Y1145764D02*
G02I-300J0D01*
G01X1129949Y999278D02*
Y1006183D01*
G01Y1014903D02*
Y1027640D01*
G01Y1036478D02*
X1122908D01*
G01X1156671Y1110800D02*
X1160200D01*
G01Y1151200D02*
X1156671D01*
G01X1160200Y1110800D02*
Y1114329D01*
G01Y1147671D02*
Y1151200D01*
G01X1196250Y1048397D02*
Y1049603D01*
G01X1191750D02*
Y1048397D01*
G01X1196500Y1057350D02*
X1191500D01*
G01X1194000Y1060350D02*
X1193500Y1057350D01*
G01X1194000Y1060350D02*
X1193000Y1057350D01*
G01X1194000Y1060350D02*
X1192500Y1057350D01*
G01X1194000Y1060350D02*
X1192000Y1057350D01*
G01X1194000Y1060350D02*
X1191500Y1057350D01*
G01X1194000Y1060350D02*
X1194500Y1057350D01*
G01X1194000Y1060350D02*
X1195000Y1057350D01*
G01X1194000Y1060350D02*
X1195500Y1057350D01*
G01X1194000Y1060350D02*
X1196000Y1057350D01*
G01X1194000Y1060350D02*
X1196500Y1057350D01*
G01Y1060350D02*
X1191500D01*
G01X1194000Y1056350D02*
Y1061350D01*
G01X1204000Y1043050D02*
X1204500Y1046050D01*
G01X1204000Y1043050D02*
X1205000Y1046050D01*
G01X1204000Y1043050D02*
X1205500Y1046050D01*
G01X1204000Y1043050D02*
X1206000Y1046050D01*
G01X1204000Y1043050D02*
X1206500Y1046050D01*
G01X1204000Y1043050D02*
X1203500Y1046050D01*
G01X1204000Y1043050D02*
X1203000Y1046050D01*
G01X1204000Y1043050D02*
X1202500Y1046050D01*
G01X1204000Y1043050D02*
X1202000Y1046050D01*
G01X1204000Y1043050D02*
X1201500Y1046050D01*
G01Y1043050D02*
X1206500D01*
G01X1204000Y1047050D02*
Y1042050D01*
G01X1211500Y1045650D02*
X1216500D01*
G01X1214000Y1042650D02*
X1214500Y1045650D01*
G01X1214000Y1042650D02*
X1215000Y1045650D01*
G01X1214000Y1042650D02*
X1215500Y1045650D01*
G01X1214000Y1042650D02*
X1216000Y1045650D01*
G01X1214000Y1042650D02*
X1216500Y1045650D01*
G01X1214000Y1042650D02*
X1213500Y1045650D01*
G01X1214000Y1042650D02*
X1213000Y1045650D01*
G01X1214000Y1042650D02*
X1212500Y1045650D01*
G01X1214000Y1042650D02*
X1212000Y1045650D01*
G01X1214000Y1042650D02*
X1211500Y1045650D01*
G01Y1042650D02*
X1216500D01*
G01X1214000Y1046650D02*
Y1041650D01*
G01X1201750Y1055003D02*
Y1053797D01*
G01X1206250D02*
Y1055003D01*
G01X1201500Y1046050D02*
X1206500D01*
G01X1211750Y1054603D02*
Y1053397D01*
G01X1216250D02*
Y1054603D01*
G54D15*
G01X1039850Y1021000D02*
G03I-393J0D01*
G01X1121500Y1075700D02*
Y1065700D01*
X1031500D01*
Y1075700D01*
X1121500D01*
G01X1055394Y1081457D02*
G03I-394J0D01*
G01X1058894Y1102957D02*
G03I-394J0D01*
G01X1101937Y1183500D02*
G03I-394J0D01*
G01X1124453Y1070700D02*
G03I-394J0D01*
G01X1124437Y1182500D02*
G03I-394J0D01*
G01X1187850Y1140000D02*
G03I-393J0D01*
M02*
