G04 ================== begin FILE IDENTIFICATION RECORD ==================*
G04 Layout Name:  selff446re2.brd*
G04 Film Name:    L2_VDD*
G04 File Format:  Gerber RS274X*
G04 File Origin:  Cadence Allegro 17.4-S030*
G04 Origin Date:  Wed Aug  3 20:10:38 2022*
G04 *
G04 Layer:  VIA CLASS/MIDTOP*
G04 Layer:  PIN/MIDTOP*
G04 Layer:  ETCH/MIDTOP*
G04 *
G04 Offset:    (0.00 0.00)*
G04 Mirror:    No*
G04 Mode:      Positive*
G04 Rotation:  0*
G04 FullContactRelief:  No*
G04 UndefLineWidth:     4.00*
G04 ================== end FILE IDENTIFICATION RECORD ====================*
%FSLAX25Y25*MOIN*%
%IR0*IPPOS*OFA0.00000B0.00000*MIA0B0*SFA1.00000B1.00000*%
%ADD20C,.055*%
%ADD12C,.02362*%
%ADD11C,.05504*%
%ADD14C,.03642*%
%ADD19R,.055X.055*%
%ADD13C,.05394*%
%ADD10R,.05504X.05504*%
%ADD15R,.03642X.03642*%
%ADD17C,.05937*%
%ADD16R,.05394X.05394*%
%ADD18R,.05937X.05937*%
%ADD21C,.01*%
%ADD26C,.06504*%
%ADD22C,.03366*%
%ADD24C,.06508*%
%ADD23C,.0694*%
%ADD25C,.06398*%
G75*
%LPD*%
G75*
G36*
G01X1034633Y1073298D02*
G02X1034000Y1073623I-233J325D01*
G01Y1196000D01*
X1222000D01*
Y1008000D01*
X1034000D01*
Y1067777D01*
G02X1034633Y1068102I400J0D01*
G03X1036500Y1067501I1867J2599D01*
G03Y1073899I0J3199D01*
G03X1034633Y1073298I0J-3200D01*
G37*
%LPC*%
G75*
G36*
G01X1125330Y1081232D02*
Y1087168D01*
G02X1125832Y1087670I502J0D01*
G01X1131768D01*
G02X1132270Y1087168I0J-502D01*
G01Y1081232D01*
G02X1131768Y1080730I-502J0D01*
G01X1125832D01*
G02X1125330Y1081232I0J502D01*
G37*
G36*
G01X1113302Y1068003D02*
Y1073397D01*
G02X1113803Y1073898I501J0D01*
G01X1119197D01*
G02X1119698Y1073397I0J-501D01*
G01Y1068003D01*
G02X1119197Y1067502I-501J0D01*
G01X1113803D01*
G02X1113302Y1068003I0J501D01*
G37*
G36*
G01X1149030Y1180032D02*
Y1185968D01*
G02X1149532Y1186470I502J0D01*
G01X1155468D01*
G02X1155970Y1185968I0J-502D01*
G01Y1180032D01*
G02X1155468Y1179530I-502J0D01*
G01X1149532D01*
G02X1149030Y1180032I0J502D01*
G37*
G36*
G01X1112246Y1179748D02*
Y1185252D01*
G02X1112748Y1185754I502J0D01*
G01X1118252D01*
G02X1118754Y1185252I0J-502D01*
G01Y1179748D01*
G02X1118252Y1179246I-502J0D01*
G01X1112748D01*
G02X1112246Y1179748I0J502D01*
G37*
G36*
G01X1089746Y1180748D02*
Y1186252D01*
G02X1090248Y1186754I502J0D01*
G01X1095752D01*
G02X1096254Y1186252I0J-502D01*
G01Y1180748D01*
G02X1095752Y1180246I-502J0D01*
G01X1090248D01*
G02X1089746Y1180748I0J502D01*
G37*
G36*
G01X1206530Y1168032D02*
Y1173968D01*
G02X1207032Y1174470I502J0D01*
G01X1212968D01*
G02X1213470Y1173968I0J-502D01*
G01Y1168032D01*
G02X1212968Y1167530I-502J0D01*
G01X1207032D01*
G02X1206530Y1168032I0J502D01*
G37*
G36*
G01X1192748Y1137250D02*
Y1142750D01*
G02X1193250Y1143252I502J0D01*
G01X1198750D01*
G02X1199252Y1142750I0J-502D01*
G01Y1137250D01*
G02X1198750Y1136748I-502J0D01*
G01X1193250D01*
G02X1192748Y1137250I0J502D01*
G37*
G36*
G01X1055246Y1108748D02*
Y1114252D01*
G02X1055748Y1114754I502J0D01*
G01X1061252D01*
G02X1061754Y1114252I0J-502D01*
G01Y1108748D01*
G02X1061252Y1108246I-502J0D01*
G01X1055748D01*
G02X1055246Y1108748I0J502D01*
G37*
G36*
G01X1204530Y1102032D02*
Y1107968D01*
G02X1205032Y1108470I502J0D01*
G01X1210968D01*
G02X1211470Y1107968I0J-502D01*
G01Y1102032D01*
G02X1210968Y1101530I-502J0D01*
G01X1205032D01*
G02X1204530Y1102032I0J502D01*
G37*
G36*
G01X1051746Y1087248D02*
Y1092752D01*
G02X1052248Y1093254I502J0D01*
G01X1057752D01*
G02X1058254Y1092752I0J-502D01*
G01Y1087248D01*
G02X1057752Y1086746I-502J0D01*
G01X1052248D01*
G02X1051746Y1087248I0J502D01*
G37*
G36*
G01X1174530Y1050032D02*
Y1055968D01*
G02X1175032Y1056470I502J0D01*
G01X1180968D01*
G02X1181470Y1055968I0J-502D01*
G01Y1050032D01*
G02X1180968Y1049530I-502J0D01*
G01X1175032D01*
G02X1174530Y1050032I0J502D01*
G37*
G36*
G01X1154530D02*
Y1055968D01*
G02X1155032Y1056470I502J0D01*
G01X1160968D01*
G02X1161470Y1055968I0J-502D01*
G01Y1050032D01*
G02X1160968Y1049530I-502J0D01*
G01X1155032D01*
G02X1154530Y1050032I0J502D01*
G37*
G36*
G01X1044746Y1018248D02*
Y1023752D01*
G02X1045248Y1024254I502J0D01*
G01X1050752D01*
G02X1051254Y1023752I0J-502D01*
G01Y1018248D01*
G02X1050752Y1017746I-502J0D01*
G01X1045248D01*
G02X1044746Y1018248I0J502D01*
G37*
G36*
G01X1199134Y1073557D02*
G03X1198558Y1073365I-206J-343D01*
G02X1197000Y1072317I-1558J634D01*
G02Y1075683I0J1683D01*
G02X1197866Y1075443I0J-1682D01*
G03X1198442Y1075635I206J343D01*
G02X1200000Y1076683I1558J-634D01*
G02Y1073317I0J-1683D01*
G02X1199134Y1073557I0J1682D01*
G37*
G36*
G01X1073996Y1132123D02*
G03X1074165Y1132740I-147J372D01*
G02X1073677Y1134165I1835J1425D01*
G02X1078323I2323J0D01*
G02X1077835Y1132740I-2323J0D01*
G03X1078004Y1132123I316J-245D01*
G02X1078322Y1131656I-184J-467D01*
G01Y1128014D01*
G02X1077821Y1127512I-501J-1D01*
G01X1074179D01*
G02X1073678Y1128014I1J502D01*
G01Y1131656D01*
G02X1073996Y1132123I502J0D01*
G37*
G36*
G01X1074196Y1157223D02*
G03X1074365Y1157840I-147J372D01*
G02X1073877Y1159265I1835J1425D01*
G02X1078523I2323J0D01*
G02X1078035Y1157840I-2323J0D01*
G03X1078204Y1157223I316J-245D01*
G02X1078522Y1156756I-184J-467D01*
G01Y1153114D01*
G02X1078021Y1152612I-501J-1D01*
G01X1074379D01*
G02X1073878Y1153114I1J502D01*
G01Y1156756D01*
G02X1074196Y1157223I502J0D01*
G37*
G36*
G01X1118610Y1044465D02*
G02X1117976Y1044341I-634J1559D01*
G02Y1047707I0J1683D01*
G02X1119655Y1046142I0J-1683D01*
G03X1120204Y1045799I399J28D01*
G02X1120838Y1045923I634J-1559D01*
G02X1121710Y1045680I1J-1683D01*
G03X1122317Y1046017I207J342D01*
G02X1124000Y1047683I1683J-17D01*
G02Y1044317I0J-1683D01*
G02X1123128Y1044560I-1J1683D01*
G03X1122521Y1044223I-207J-342D01*
G02X1120838Y1042557I-1683J17D01*
G02X1119159Y1044122I0J1683D01*
G03X1118610Y1044465I-399J-28D01*
G37*
G36*
G01X1197320Y1057894D02*
G02X1197317Y1058000I1680J101D01*
G02X1199000Y1056317I1683J0D01*
G02X1198256Y1056491I1J1683D01*
G03X1197680Y1056106I-177J-359D01*
G02X1197683Y1056000I-1680J-101D01*
G02X1196000Y1057683I-1683J0D01*
G02X1196744Y1057509I-1J-1683D01*
G03X1197320Y1057894I177J359D01*
G37*
G54D26*
X1196000Y1160000D03*
Y1150000D03*
Y1180000D03*
Y1170000D03*
G54D22*
X1142000Y1082000D03*
X1139000Y1078000D03*
X1060000Y1014000D03*
X1064000Y1012000D03*
X1087000Y1011000D03*
X1091769D03*
X1138741Y1012741D03*
X1185500Y1018900D03*
Y1014131D03*
X1212000Y1025000D03*
X1207000D03*
X1090000Y1032500D03*
X1095000Y1039000D03*
X1131000Y1041000D03*
X1046131Y1058000D03*
X1051000D03*
X1150000Y1064000D03*
X1162000Y1062000D03*
X1214000D03*
X1209000Y1058000D03*
X1148000Y1082000D03*
X1174000D03*
X1169000Y1076000D03*
X1192000Y1070000D03*
X1081000Y1090000D03*
X1124193Y1102000D03*
X1166000Y1086000D03*
X1087000Y1117000D03*
X1096000Y1116000D03*
X1114000Y1106000D03*
X1126000Y1116000D03*
X1154000Y1114000D03*
X1178000Y1116000D03*
X1173118Y1113118D03*
X1048000Y1136000D03*
Y1126000D03*
X1132000Y1132000D03*
X1123984Y1131984D03*
X1124000Y1140000D03*
X1188000Y1136000D03*
X1180000Y1127000D03*
X1213921Y1126079D03*
X1052000Y1146000D03*
X1124000Y1148000D03*
X1152000Y1160000D03*
X1148000Y1146000D03*
X1152000D03*
X1158205Y1143795D03*
X1052000Y1168000D03*
X1135000Y1161000D03*
X1126000Y1180000D03*
X1110000Y1126000D03*
G54D24*
X1048000Y1031000D03*
X1045000Y1090000D03*
X1048500Y1111500D03*
X1093000Y1173500D03*
X1115500Y1172500D03*
G54D23*
X1128800Y1054200D03*
Y1064200D03*
X1158000Y1023000D03*
X1178000D03*
X1158000Y1033000D03*
Y1043000D03*
X1178000Y1033000D03*
Y1043000D03*
X1208000Y1075000D03*
Y1085000D03*
Y1095000D03*
X1210000Y1141000D03*
Y1151000D03*
Y1161000D03*
X1162500Y1183000D03*
X1172500D03*
X1182500D03*
X1128800Y1074200D03*
G54D25*
X1046500Y1070700D03*
X1056500D03*
X1066500D03*
X1076500D03*
X1086500D03*
X1096500D03*
X1106500D03*
%LPD*%
G75*
G54D10*
X1048000Y1021000D03*
X1055000Y1090000D03*
X1058500Y1111500D03*
X1093000Y1183500D03*
X1115500Y1182500D03*
G54D11*
X1048000Y1031000D03*
X1045000Y1090000D03*
X1048500Y1111500D03*
X1093000Y1173500D03*
X1115500Y1172500D03*
G54D20*
X1196000Y1160000D03*
Y1150000D03*
Y1180000D03*
Y1170000D03*
G54D21*
G01X1044546Y1021000D02*
X1048000D01*
G01Y1017546D02*
Y1021000D01*
G01D02*
Y1024454D01*
G01Y1021000D02*
X1051454D01*
G01X1115500Y1179046D02*
Y1182500D01*
G01D02*
Y1185954D01*
G01X1112046Y1182500D02*
X1115500D01*
G01D02*
X1118954D01*
G01X1128800Y1060529D02*
Y1064200D01*
G01D02*
Y1067871D01*
G01X1125129Y1064200D02*
X1128800D01*
G01D02*
X1132471D01*
G01X1158000Y1019329D02*
Y1023000D01*
G01D02*
Y1026671D01*
G01X1154329Y1023000D02*
X1158000D01*
G01D02*
X1161671D01*
G01X1158829Y1183000D02*
X1162500D01*
G01X1178000Y1019329D02*
Y1023000D01*
G01D02*
Y1026671D01*
G01X1174329Y1023000D02*
X1178000D01*
G01D02*
X1181671D01*
G01X1162500Y1179329D02*
Y1183000D01*
G01D02*
Y1186671D01*
G01Y1183000D02*
X1166171D01*
G01X1196000Y1136548D02*
Y1140000D01*
G01D02*
Y1143452D01*
G01X1192548Y1140000D02*
X1196000D01*
G01D02*
X1199452D01*
G01X1208000Y1091329D02*
Y1095000D01*
G01D02*
Y1098671D01*
G01X1204329Y1095000D02*
X1208000D01*
G01D02*
X1211671D01*
G01X1210000Y1157329D02*
Y1161000D01*
G01D02*
Y1164671D01*
G01X1206329Y1161000D02*
X1210000D01*
G01D02*
X1213671D01*
G54D12*
X1045000Y1039000D03*
X1046131Y1058000D03*
X1040000Y1182000D03*
X1060000Y1014000D03*
X1064000Y1012000D03*
X1052000Y1039000D03*
X1062000Y1052000D03*
X1051000Y1058000D03*
X1048000Y1136000D03*
Y1126000D03*
X1052000Y1146000D03*
Y1168000D03*
X1070000Y1014000D03*
X1074000D03*
X1084000Y1052000D03*
X1072000D03*
X1078000D03*
X1066000D03*
X1081000Y1090000D03*
X1070000Y1110000D03*
X1087000Y1011000D03*
X1091769D03*
X1090000Y1032500D03*
X1095000Y1039000D03*
X1087000Y1117000D03*
X1096000Y1116000D03*
X1117976Y1046024D03*
X1120838Y1044240D03*
X1114000Y1106000D03*
X1110000Y1126000D03*
X1138741Y1012741D03*
X1124000Y1046000D03*
X1131000Y1041000D03*
X1139000Y1078000D03*
X1130000Y1102000D03*
X1124193D03*
X1126000Y1116000D03*
X1132000Y1132000D03*
X1123984Y1131984D03*
X1124000Y1140000D03*
Y1148000D03*
Y1162000D03*
X1135000Y1161000D03*
X1126000Y1180000D03*
X1146000Y1028000D03*
X1150000Y1032000D03*
Y1064000D03*
X1148000Y1082000D03*
X1142000D03*
X1156000Y1094000D03*
X1154000Y1114000D03*
X1152000Y1160000D03*
X1148000Y1146000D03*
X1152000D03*
X1158205Y1143795D03*
X1153900Y1172100D03*
X1162000Y1062000D03*
X1174000Y1082000D03*
X1169000Y1076000D03*
X1166000Y1086000D03*
X1178000Y1116000D03*
X1173118Y1113118D03*
X1171764Y1145764D03*
X1173000Y1172000D03*
X1194000Y1027000D03*
X1185500Y1018900D03*
Y1014131D03*
X1196000Y1056000D03*
X1192000Y1070000D03*
X1197000Y1074000D03*
X1185000Y1091000D03*
X1188000Y1136000D03*
X1180000Y1127000D03*
X1187000Y1144396D03*
X1204500Y1018669D03*
Y1013900D03*
X1212000Y1025000D03*
X1207000D03*
X1214000Y1062000D03*
X1199000Y1058000D03*
X1209000D03*
X1200000Y1075000D03*
X1207000Y1117000D03*
X1213000Y1121000D03*
X1213921Y1126079D03*
G54D13*
X1036500Y1070700D03*
X1046500D03*
X1056500D03*
X1066500D03*
X1076500D03*
X1086500D03*
X1096500D03*
X1106500D03*
G54D14*
X1076000Y1134165D03*
X1076200Y1159265D03*
G54D15*
X1076000Y1129835D03*
X1076200Y1154935D03*
G54D16*
X1116500Y1070700D03*
G54D17*
X1128800Y1054200D03*
Y1064200D03*
Y1074200D03*
X1158000Y1023000D03*
Y1033000D03*
Y1043000D03*
X1162500Y1183000D03*
X1178000Y1023000D03*
Y1033000D03*
Y1043000D03*
X1172500Y1183000D03*
X1182500D03*
X1208000Y1075000D03*
Y1085000D03*
Y1095000D03*
X1210000Y1141000D03*
Y1151000D03*
Y1161000D03*
G54D18*
X1128800Y1084200D03*
X1158000Y1053000D03*
X1152500Y1183000D03*
X1178000Y1053000D03*
X1208000Y1105000D03*
X1210000Y1171000D03*
G54D19*
X1196000Y1140000D03*
M02*
