G04 ================== begin FILE IDENTIFICATION RECORD ==================*
G04 Layout Name:  selff446re2.brd*
G04 Film Name:    PASTEMASK_TOP*
G04 File Format:  Gerber RS274X*
G04 File Origin:  Cadence Allegro 17.4-S030*
G04 Origin Date:  Wed Aug  3 20:10:38 2022*
G04 *
G04 Layer:  VIA CLASS/PASTEMASK_TOP*
G04 Layer:  PIN/PASTEMASK_TOP*
G04 Layer:  DRC ERROR CLASS/PASTEMASK_TOP*
G04 *
G04 Offset:    (0.00 0.00)*
G04 Mirror:    No*
G04 Mode:      Positive*
G04 Rotation:  0*
G04 FullContactRelief:  No*
G04 UndefLineWidth:     4.00*
G04 ================== end FILE IDENTIFICATION RECORD ====================*
%FSLAX25Y25*MOIN*%
%IR0*IPPOS*OFA0.00000B0.00000*MIA0B0*SFA1.00000B1.00000*%
%ADD13R,.124X.087*%
%ADD16R,.061X.061*%
%ADD19R,.012X.047*%
%ADD18R,.047X.012*%
%ADD17R,.02X.089*%
%ADD11R,.033X.087*%
%ADD21R,.028X.0175*%
%ADD20R,.04724X.03543*%
%ADD10R,.03543X.04724*%
%ADD12R,.05709X.04943*%
%ADD14R,.04943X.05709*%
%ADD15R,.04724X.05787*%
%LPD*%
G75*
G54D10*
X1043866Y1188000D03*
X1052134D03*
X1077866Y1100000D03*
X1069866Y1179000D03*
X1078134D03*
X1086134Y1100000D03*
X1087866Y1138000D03*
X1096134D03*
X1087866Y1128000D03*
X1096134D03*
X1091866Y1152000D03*
X1100134D03*
X1091866Y1162000D03*
X1100134D03*
X1140766Y1172100D03*
X1149034D03*
X1158866Y1172000D03*
X1167134D03*
G54D20*
X1194000Y1040134D03*
Y1031866D03*
X1204000Y1038134D03*
Y1029866D03*
X1214000Y1038134D03*
Y1029866D03*
G54D11*
X1060945Y1023400D03*
X1079055D03*
X1070000D03*
G54D12*
X1048700Y1044941D03*
Y1051459D03*
X1060000Y1174741D03*
Y1181259D03*
X1090000Y1016741D03*
Y1023259D03*
X1141800Y1047241D03*
X1142000Y1064741D03*
X1141800Y1053759D03*
X1142000Y1071259D03*
X1195900Y1093441D03*
Y1099959D03*
G54D21*
X1194000Y1046525D03*
Y1051475D03*
X1204000Y1056875D03*
Y1051925D03*
X1214000Y1056475D03*
Y1051525D03*
G54D13*
X1070000Y1044600D03*
G54D14*
X1050241Y1100000D03*
X1056759D03*
X1054741Y1136000D03*
X1061259D03*
X1054741Y1126000D03*
X1061259D03*
X1052741Y1162000D03*
X1059259D03*
X1052741Y1152000D03*
X1059259D03*
X1138741Y1020000D03*
X1137741Y1037000D03*
X1131259Y1096000D03*
X1124741D03*
X1145259Y1020000D03*
X1144259Y1037000D03*
X1162741Y1094000D03*
X1169259D03*
X1197759Y1015900D03*
X1191241D03*
G54D15*
X1078614Y1108000D03*
X1085386D03*
G54D16*
X1097862Y1010543D03*
Y1032000D03*
X1130736Y1010543D03*
Y1032000D03*
G54D17*
X1120598D03*
X1117449D03*
X1114299D03*
X1111150D03*
X1108000D03*
G54D18*
X1117362Y1116236D03*
Y1118205D03*
Y1120173D03*
Y1122142D03*
Y1124110D03*
Y1126079D03*
Y1128047D03*
Y1130016D03*
Y1131984D03*
Y1133953D03*
Y1135921D03*
Y1137890D03*
Y1139858D03*
Y1141827D03*
Y1143795D03*
Y1145764D03*
X1162638Y1120173D03*
Y1118205D03*
Y1116236D03*
Y1139858D03*
Y1137890D03*
Y1135921D03*
Y1133953D03*
Y1131984D03*
Y1130016D03*
Y1128047D03*
Y1126079D03*
Y1124110D03*
Y1122142D03*
Y1145764D03*
Y1143795D03*
Y1141827D03*
G54D19*
X1140984Y1108362D03*
X1139016D03*
X1137047D03*
X1135079D03*
X1133110D03*
X1131142D03*
X1129173D03*
X1127205D03*
X1125236D03*
Y1153638D03*
X1127205D03*
X1129173D03*
X1131142D03*
X1133110D03*
X1135079D03*
X1137047D03*
X1139016D03*
X1140984D03*
X1154764Y1108362D03*
X1152795D03*
X1150827D03*
X1148858D03*
X1146890D03*
X1144921D03*
X1142953D03*
Y1153638D03*
X1144921D03*
X1146890D03*
X1148858D03*
X1150827D03*
X1152795D03*
X1154764D03*
M02*
