G04 ================== begin FILE IDENTIFICATION RECORD ==================*
G04 Layout Name:  selff446re2.brd*
G04 Film Name:    SOLDERMASK_BOTTOM*
G04 File Format:  Gerber RS274X*
G04 File Origin:  Cadence Allegro 17.4-S030*
G04 Origin Date:  Wed Aug  3 20:10:38 2022*
G04 *
G04 Layer:  VIA CLASS/SOLDERMASK_BOTTOM*
G04 Layer:  PIN/SOLDERMASK_BOTTOM*
G04 Layer:  DRC ERROR CLASS/SOLDERMASK_BOTTOM*
G04 *
G04 Offset:    (0.00 0.00)*
G04 Mirror:    No*
G04 Mode:      Positive*
G04 Rotation:  0*
G04 FullContactRelief:  No*
G04 UndefLineWidth:     4.00*
G04 ================== end FILE IDENTIFICATION RECORD ====================*
%FSLAX25Y25*MOIN*%
%IR0*IPPOS*OFA0.00000B0.00000*MIA0B0*SFA1.00000B1.00000*%
%ADD23C,.055*%
%ADD12C,.06181*%
%ADD22R,.055X.055*%
%ADD11C,.06291*%
%ADD17C,.06724*%
%ADD13C,.04429*%
%ADD16R,.06181X.06181*%
%ADD10R,.06291X.06291*%
%ADD18R,.06724X.06724*%
%ADD14R,.04429X.04429*%
%ADD21R,.05512X.04331*%
%ADD20R,.04331X.05512*%
%ADD15R,.05709X.04943*%
%ADD19R,.04943X.05709*%
%LPD*%
G75*
G54D10*
X1048000Y1021000D03*
X1055000Y1090000D03*
X1058500Y1111500D03*
X1093000Y1183500D03*
X1115500Y1182500D03*
G54D20*
X1186866Y1080000D03*
X1195134D03*
X1192866Y1116000D03*
X1193134Y1127000D03*
X1184866D03*
X1201134Y1116000D03*
G54D11*
X1048000Y1031000D03*
X1045000Y1090000D03*
X1048500Y1111500D03*
X1093000Y1173500D03*
X1115500Y1172500D03*
G54D21*
X1181700Y1138066D03*
Y1146334D03*
G54D12*
X1036500Y1070700D03*
X1046500D03*
X1056500D03*
X1066500D03*
X1076500D03*
X1086500D03*
X1096500D03*
X1106500D03*
G54D13*
X1076000Y1134165D03*
X1076200Y1159265D03*
G54D22*
X1196000Y1140000D03*
G54D14*
X1076000Y1129835D03*
X1076200Y1154935D03*
G54D23*
X1196000Y1160000D03*
Y1150000D03*
Y1180000D03*
Y1170000D03*
G54D15*
X1088000Y1038741D03*
Y1045259D03*
X1125000Y1166741D03*
Y1173259D03*
X1184000Y1164741D03*
Y1171259D03*
G54D16*
X1116500Y1070700D03*
G54D17*
X1128800Y1054200D03*
Y1064200D03*
Y1074200D03*
X1158000Y1023000D03*
Y1033000D03*
Y1043000D03*
X1162500Y1183000D03*
X1178000Y1023000D03*
Y1033000D03*
Y1043000D03*
X1172500Y1183000D03*
X1182500D03*
X1208000Y1075000D03*
Y1085000D03*
Y1095000D03*
X1210000Y1141000D03*
Y1151000D03*
Y1161000D03*
G54D18*
X1128800Y1084200D03*
X1158000Y1053000D03*
X1152500Y1183000D03*
X1178000Y1053000D03*
X1208000Y1105000D03*
X1210000Y1171000D03*
G54D19*
X1139259Y1187000D03*
X1132741D03*
X1171159Y1153700D03*
X1164641D03*
X1201741Y1129300D03*
X1208259D03*
M02*
